<?xml version="1.0" standalone="no"?>
<!DOCTYPE svg PUBLIC "-//W3C//DTD SVG 20010904//EN"
 "http://www.w3.org/TR/2001/REC-SVG-20010904/DTD/svg10.dtd">
<svg version="1.0" xmlns="http://www.w3.org/2000/svg"
 width="1080.000000pt" height="1920.000000pt" viewBox="0 0 1080.000000 1920.000000"
 preserveAspectRatio="xMidYMid meet">

<g transform="translate(0.000000,1920.000000) scale(0.100000,-0.100000)"
fill="#000000" stroke="none">
<path d="M8106 14635 c-11 -8 -39 -15 -61 -15 -29 0 -47 -6 -60 -20 -10 -11
-28 -20 -41 -20 -21 0 -69 -35 -120 -87 -26 -28 -36 -29 -59 -3 -10 11 -28 20
-40 20 -12 0 -30 9 -40 20 -16 17 -31 20 -117 20 -86 0 -100 -3 -115 -20 -11
-12 -30 -20 -49 -20 -18 0 -38 -8 -49 -20 -10 -11 -26 -20 -37 -20 -10 0 -43
-23 -72 -51 -62 -58 -97 -79 -117 -69 -23 12 -219 20 -293 11 -48 -5 -71 -12
-78 -24 -5 -9 -20 -17 -34 -17 -25 0 -105 -72 -141 -126 -20 -31 -81 -33 -108
-4 -16 17 -31 20 -115 20 -82 0 -101 -3 -123 -20 -14 -11 -35 -20 -46 -20 -22
0 -29 -5 -106 -78 -54 -52 -81 -85 -97 -119 -6 -12 -20 -24 -32 -27 -30 -8
-94 4 -107 20 -6 8 -26 14 -44 14 -18 0 -54 10 -81 21 -40 18 -59 21 -122 15
-40 -3 -83 -13 -95 -21 -12 -8 -34 -15 -50 -15 -15 0 -30 -7 -33 -15 -4 -8
-15 -15 -26 -15 -24 0 -70 -47 -129 -130 -38 -55 -45 -60 -79 -60 -24 0 -43 7
-55 20 -10 11 -29 20 -42 20 -13 0 -33 5 -44 11 -29 15 -126 16 -141 1 -7 -7
-29 -12 -50 -12 -26 0 -44 -6 -55 -20 -10 -11 -28 -20 -40 -20 -12 0 -27 -9
-33 -20 -6 -11 -16 -20 -22 -20 -11 0 -97 -90 -98 -102 0 -16 -58 -7 -74 11
-27 30 -129 39 -264 24 -54 -6 -76 -13 -83 -26 -7 -11 -22 -17 -44 -17 -24 0
-38 -6 -45 -20 -6 -11 -19 -20 -29 -20 -10 0 -40 -25 -66 -55 -52 -61 -87 -71
-120 -35 -10 11 -26 20 -35 20 -10 0 -20 6 -23 14 -5 13 -79 28 -142 28 -63 1
-155 -15 -166 -28 -6 -8 -22 -14 -35 -14 -24 0 -59 -31 -124 -108 -29 -35 -41
-42 -71 -42 -20 0 -42 7 -49 15 -7 8 -23 15 -36 15 -13 0 -42 10 -64 21 -45
24 -99 22 -175 -6 -22 -8 -59 -14 -81 -15 -28 0 -44 -5 -48 -15 -3 -8 -17 -15
-31 -15 -14 0 -30 -9 -37 -20 -7 -11 -18 -20 -25 -20 -7 0 -17 -9 -23 -20 -6
-11 -17 -20 -25 -20 -8 0 -15 -6 -16 -12 0 -7 -19 -40 -42 -73 -49 -69 -84
-83 -111 -44 -15 22 -21 23 -171 22 -145 -1 -158 -2 -179 -22 -12 -11 -31 -21
-42 -21 -15 0 -66 -38 -117 -87 -35 -34 -97 -109 -97 -117 -1 -6 -11 -23 -23
-38 -21 -26 -24 -26 -93 -19 -40 5 -76 11 -80 14 -5 2 -58 0 -119 -5 -82 -7
-117 -14 -137 -29 -15 -10 -34 -19 -41 -19 -8 0 -42 -26 -75 -57 -58 -57 -122
-161 -122 -200 0 -10 -7 -29 -16 -42 -25 -34 -25 -262 0 -356 10 -38 24 -79
31 -90 6 -11 8 -24 4 -30 -4 -5 -24 -28 -44 -50 -19 -21 -35 -47 -35 -57 0
-10 -7 -18 -17 -18 -9 0 -24 -7 -34 -16 -9 -8 -23 -17 -31 -18 -7 -1 -39 -28
-72 -59 -46 -44 -66 -57 -90 -57 -27 0 -35 -7 -59 -51 -15 -27 -25 -54 -23
-58 3 -5 1 -23 -5 -42 -6 -19 -15 -70 -20 -114 -10 -92 -23 -184 -39 -270 -6
-33 -15 -91 -20 -130 -5 -38 -14 -101 -20 -140 -22 -147 -47 -361 -60 -515
-18 -221 -26 -295 -33 -307 -4 -6 -12 -60 -18 -120 -6 -59 -15 -144 -20 -188
-5 -44 -13 -125 -19 -180 -6 -55 -15 -136 -20 -180 -6 -44 -14 -125 -20 -180
-5 -55 -14 -138 -20 -185 -6 -47 -15 -132 -20 -190 -6 -58 -14 -141 -20 -185
-5 -44 -14 -123 -19 -175 -4 -52 -14 -110 -21 -128 -7 -18 -10 -41 -7 -52 3
-11 1 -37 -5 -57 -5 -21 -13 -83 -19 -138 -5 -55 -14 -140 -19 -190 -6 -49
-15 -135 -20 -190 -6 -55 -15 -136 -20 -180 -5 -44 -15 -127 -20 -185 -6 -58
-15 -143 -20 -190 -6 -47 -14 -134 -20 -195 -16 -184 -28 -297 -38 -365 -6
-36 -11 -100 -11 -143 0 -43 -3 -82 -6 -88 -11 -17 -23 -312 -15 -363 10 -67
28 -78 113 -74 61 3 67 2 67 -16 0 -10 5 -36 12 -57 11 -37 15 -40 77 -58 236
-69 898 -186 1251 -220 52 -6 172 -19 265 -30 153 -19 279 -32 590 -61 80 -8
111 -7 155 5 65 17 90 19 90 5 0 -26 43 -99 61 -103 12 -3 73 15 142 43 304
120 682 242 865 280 56 11 139 20 189 20 126 0 244 34 763 220 218 78 354 112
835 211 1538 315 2090 480 3180 949 764 329 1316 560 1755 734 l155 62 3 69
c2 38 -1 79 -6 90 -5 11 -55 137 -112 280 -56 143 -120 301 -141 350 -341 807
-401 991 -671 2055 -158 628 -242 905 -345 1148 -117 278 -271 720 -357 1027
-25 88 -69 248 -99 355 -122 435 -221 736 -253 769 l-23 25 -24 -22 c-42 -39
-49 -31 -98 108 -28 82 -52 129 -81 165 -40 49 -122 125 -134 125 -7 0 -14 7
-18 15 -3 8 -17 15 -31 15 -14 0 -33 9 -42 20 -13 15 -30 20 -63 20 -26 0 -55
7 -66 15 -10 8 -39 14 -64 14 -25 0 -54 -6 -64 -14z m220 -142 c71 -34 149
-110 188 -183 16 -30 34 -58 40 -62 5 -4 10 -31 11 -60 l0 -53 -44 -6 c-25 -3
-47 -11 -49 -17 -2 -7 -20 -12 -40 -12 -21 0 -48 -9 -62 -20 -18 -14 -41 -20
-85 -20 -41 0 -72 -6 -98 -20 -24 -13 -56 -20 -92 -20 l-54 0 -7 38 c-18 105
-75 251 -120 302 -18 21 5 88 39 114 86 64 263 73 373 19z m-661 -72 c59 -26
129 -93 169 -160 50 -86 99 -218 92 -247 -10 -39 -38 -64 -71 -64 -16 0 -43
-9 -60 -20 -19 -12 -47 -20 -75 -20 -28 0 -56 -8 -75 -20 -18 -12 -47 -20 -74
-20 -26 0 -57 -8 -77 -21 -44 -27 -69 -13 -85 44 -37 140 -92 268 -144 337
l-26 35 61 57 c124 118 247 151 365 99z m-608 -175 c102 -54 159 -133 212
-295 43 -131 42 -145 -15 -171 -31 -13 -68 -20 -109 -20 -49 0 -66 -4 -80 -20
-13 -14 -31 -20 -60 -20 -28 0 -50 -7 -65 -20 -13 -11 -26 -20 -30 -20 -20 0
-40 35 -63 110 -25 82 -66 159 -105 198 -10 10 -33 40 -51 66 -37 53 -35 69
11 121 88 101 240 131 355 71z m-615 -156 c105 -40 248 -201 290 -328 26 -78
24 -100 -9 -113 -16 -6 -41 -17 -56 -25 -16 -8 -45 -14 -66 -14 -20 0 -54 -9
-76 -20 -22 -11 -53 -20 -71 -20 -17 0 -43 -9 -57 -20 -17 -14 -40 -20 -73
-20 -28 0 -54 -6 -64 -15 -18 -16 -69 -23 -88 -11 -7 4 -12 17 -12 28 0 44
-43 180 -81 254 l-38 77 34 51 c60 90 104 134 167 165 73 37 124 40 200 11z
m2300 -73 c9 -13 21 -43 28 -68 6 -24 16 -60 21 -79 20 -78 52 -176 60 -184 5
-6 9 -22 9 -37 0 -15 5 -31 10 -34 6 -3 10 -17 10 -31 0 -13 4 -32 9 -42 9
-16 46 -139 73 -237 6 -22 14 -51 18 -65 4 -14 13 -45 20 -70 6 -25 16 -59 21
-76 5 -17 9 -40 9 -52 0 -11 5 -24 10 -27 6 -3 10 -19 10 -35 0 -16 5 -32 10
-35 6 -3 10 -16 10 -27 0 -21 10 -58 35 -128 7 -19 27 -82 45 -140 18 -58 36
-114 40 -125 5 -11 20 -54 34 -95 30 -89 76 -216 104 -285 11 -27 30 -75 41
-105 12 -30 26 -64 31 -75 40 -86 155 -417 195 -560 33 -120 57 -211 65 -250
5 -22 16 -62 25 -90 9 -27 18 -63 21 -78 2 -16 7 -33 10 -39 7 -11 20 -58 35
-125 5 -24 13 -62 18 -85 6 -24 13 -56 16 -73 4 -16 10 -39 15 -50 5 -11 11
-33 15 -50 7 -36 20 -87 35 -140 6 -22 15 -56 19 -75 5 -19 16 -62 26 -95 9
-33 21 -76 25 -95 5 -19 14 -53 20 -75 6 -22 15 -56 20 -75 9 -35 22 -84 41
-150 6 -19 13 -46 16 -60 17 -71 167 -490 219 -610 89 -209 127 -298 141 -335
27 -73 86 -210 100 -230 7 -11 13 -27 13 -36 0 -9 13 -43 30 -75 16 -32 30
-64 30 -70 0 -6 8 -29 17 -50 9 -22 24 -59 34 -84 9 -25 31 -80 48 -123 30
-74 31 -80 16 -103 -11 -17 -25 -24 -48 -24 -18 0 -49 -9 -70 -20 -20 -11 -46
-20 -57 -20 -10 0 -24 -9 -30 -20 -6 -11 -21 -20 -34 -20 -13 0 -29 -7 -36
-15 -7 -8 -25 -15 -40 -15 -15 0 -35 -9 -45 -20 -10 -11 -30 -20 -45 -20 -15
0 -39 -9 -53 -20 -14 -11 -38 -20 -54 -20 -17 0 -33 -8 -41 -20 -8 -14 -23
-20 -46 -20 -18 0 -39 -7 -46 -15 -7 -8 -22 -15 -35 -15 -12 0 -30 -9 -40 -20
-11 -12 -31 -20 -50 -20 -19 0 -39 -8 -50 -20 -10 -11 -30 -20 -45 -20 -15 0
-35 -9 -45 -20 -11 -12 -31 -20 -50 -20 -20 0 -35 -6 -39 -15 -3 -9 -18 -15
-36 -15 -19 0 -34 -7 -42 -20 -9 -14 -24 -20 -51 -20 -25 0 -43 -7 -54 -20
-10 -11 -29 -20 -44 -20 -14 0 -34 -9 -44 -20 -11 -12 -31 -20 -50 -20 -20 0
-35 -6 -39 -15 -3 -8 -16 -15 -29 -15 -13 0 -32 -9 -42 -20 -11 -12 -31 -20
-50 -20 -19 0 -39 -8 -50 -20 -10 -11 -29 -20 -42 -20 -14 0 -36 -9 -50 -20
-14 -11 -36 -20 -48 -20 -12 0 -28 -7 -35 -15 -7 -8 -25 -15 -40 -15 -15 0
-35 -9 -45 -20 -10 -11 -28 -20 -40 -20 -12 0 -30 -9 -40 -20 -11 -12 -31 -20
-49 -20 -19 0 -38 -8 -49 -20 -9 -11 -29 -20 -46 -20 -16 0 -34 -7 -41 -15 -7
-8 -25 -15 -40 -15 -15 0 -35 -9 -45 -20 -11 -12 -31 -20 -50 -20 -19 0 -39
-8 -50 -20 -11 -12 -31 -20 -50 -20 -19 0 -39 -8 -50 -20 -10 -11 -28 -20 -40
-20 -13 0 -28 -7 -35 -15 -7 -8 -27 -15 -45 -15 -19 0 -39 -8 -50 -20 -11 -12
-31 -20 -50 -20 -18 0 -42 -9 -55 -20 -13 -11 -36 -20 -52 -20 -17 0 -41 -9
-55 -20 -14 -11 -40 -20 -58 -20 -18 0 -38 -7 -45 -15 -7 -8 -29 -15 -50 -15
-22 0 -48 -8 -63 -20 -16 -13 -40 -20 -70 -20 -31 0 -49 -6 -62 -20 -11 -12
-31 -20 -49 -20 -17 0 -44 -9 -61 -20 -18 -12 -47 -20 -71 -20 -23 0 -47 -6
-53 -14 -6 -7 -34 -16 -61 -18 -28 -3 -58 -12 -68 -22 -12 -10 -36 -16 -63
-16 -25 0 -60 -9 -82 -20 -20 -11 -52 -20 -69 -20 -18 0 -53 -9 -77 -20 -25
-12 -65 -20 -96 -20 -34 0 -57 -5 -65 -15 -7 -8 -27 -15 -44 -15 -17 0 -51 -9
-75 -20 -24 -11 -66 -20 -95 -20 -28 -1 -69 -8 -91 -16 -22 -9 -66 -20 -98
-24 -31 -4 -64 -13 -72 -20 -8 -6 -51 -15 -97 -19 -46 -4 -93 -13 -105 -19
-12 -7 -35 -12 -52 -12 -17 0 -54 -9 -83 -20 -29 -11 -75 -20 -103 -20 -28 0
-69 -9 -94 -20 -24 -11 -62 -20 -85 -20 -23 0 -52 -7 -64 -16 -15 -10 -55 -17
-120 -21 -53 -3 -106 -11 -117 -18 -11 -6 -46 -15 -78 -18 -32 -3 -69 -13 -82
-21 -14 -9 -41 -16 -62 -16 -21 0 -55 -9 -76 -20 -20 -11 -50 -20 -65 -20 -16
0 -39 -9 -52 -20 -13 -11 -37 -20 -55 -20 -18 0 -38 -7 -45 -15 -7 -8 -28 -15
-46 -15 -22 0 -40 -7 -51 -20 -11 -13 -30 -20 -53 -20 -19 0 -46 -9 -60 -20
-14 -11 -41 -20 -61 -20 -23 0 -42 -7 -54 -20 -13 -14 -31 -20 -60 -20 -22 0
-50 -7 -61 -15 -10 -8 -28 -15 -39 -15 -11 0 -33 -9 -50 -20 -26 -17 -48 -20
-160 -20 -93 -1 -141 -5 -170 -17 -22 -8 -65 -19 -95 -23 -30 -4 -72 -14 -92
-23 -21 -10 -55 -17 -76 -17 -21 0 -47 -7 -58 -15 -10 -8 -33 -15 -50 -15 -17
0 -43 -9 -57 -20 -17 -13 -40 -20 -70 -20 -29 0 -53 -7 -70 -20 -14 -11 -39
-20 -57 -20 -18 0 -43 -9 -57 -20 -14 -11 -40 -20 -58 -20 -18 0 -38 -7 -45
-15 -7 -8 -25 -15 -40 -15 -15 0 -35 -9 -45 -20 -11 -12 -31 -20 -48 -20 -17
0 -40 -9 -53 -21 -38 -36 -58 -12 -84 105 -86 392 -215 934 -355 1491 -258
1021 -339 1323 -766 2850 -88 314 -241 857 -341 1207 -100 351 -180 640 -177
643 18 17 739 279 747 271 7 -8 5 -118 -3 -156 -12 -55 -42 -90 -76 -90 -17 0
-32 6 -35 15 -3 8 -16 17 -27 21 -23 7 -39 20 -84 67 -14 15 -36 27 -49 27
-22 0 -58 -27 -52 -39 2 -3 13 -26 25 -51 44 -95 157 -155 258 -136 49 10 108
65 136 129 19 43 23 70 23 155 l1 102 51 19 c75 29 524 164 528 160 2 -2 0
-30 -4 -61 -8 -56 -34 -107 -56 -108 -6 0 -19 -9 -30 -21 -18 -20 -27 -21
-139 -18 l-120 4 -3 -27 c-3 -23 3 -30 35 -46 70 -36 157 -44 233 -21 93 28
186 151 211 280 13 68 -10 55 219 114 257 66 351 88 356 82 3 -3 1 -14 -5 -25
-6 -12 -11 -33 -11 -49 -1 -51 -63 -98 -148 -110 -37 -6 -93 18 -129 55 -27
27 -64 29 -87 4 -15 -18 -15 -22 10 -67 22 -38 38 -52 83 -73 177 -81 359 27
412 244 6 27 14 52 18 56 8 9 484 129 489 123 3 -3 0 -29 -6 -60 -12 -56 -38
-104 -58 -105 -6 0 -19 -9 -29 -20 -16 -17 -31 -20 -116 -20 l-98 0 -22 -31
c-30 -43 -17 -62 52 -72 124 -19 244 17 313 93 48 53 72 104 89 185 16 81 -11
67 277 145 102 28 192 53 202 56 14 4 16 -3 14 -43 -1 -26 -10 -61 -19 -78
-22 -42 -81 -105 -97 -105 -8 0 -24 -10 -38 -22 -22 -22 -32 -23 -159 -23
-119 0 -137 -2 -147 -18 -8 -13 -7 -24 4 -44 18 -33 55 -42 177 -42 228 -2
365 126 408 381 6 37 8 38 78 59 208 61 373 110 385 114 23 8 2 -105 -30 -162
-16 -29 -33 -53 -38 -53 -5 0 -12 -9 -15 -20 -3 -11 -15 -20 -25 -20 -10 0
-37 -9 -61 -20 -29 -13 -66 -20 -107 -20 l-63 0 3 -47 3 -48 68 -3 c205 -9
356 132 400 373 6 33 11 61 12 62 3 6 597 174 601 170 3 -2 6 -26 7 -53 1 -44
-3 -55 -47 -114 -26 -36 -55 -69 -64 -74 -10 -5 -21 -15 -25 -23 -4 -7 -15
-13 -23 -13 -8 0 -28 -10 -44 -22 -30 -21 -31 -21 -67 -4 -42 21 -208 38 -234
25 -19 -10 -32 -50 -23 -73 7 -18 45 -30 151 -47 142 -23 291 21 380 113 67
69 94 134 121 287 l7 44 285 82 c157 45 288 80 293 78 14 -8 7 -103 -10 -131
-46 -75 -59 -92 -75 -92 -9 0 -24 -10 -32 -22 -15 -21 -24 -22 -118 -23 l-102
0 -9 -34 c-13 -51 5 -62 104 -68 68 -4 95 -1 142 15 133 47 208 156 225 327
l7 70 185 50 c102 28 196 55 209 59 24 8 24 8 18 -49 -3 -31 -10 -62 -15 -68
-5 -7 -12 -23 -15 -37 -4 -14 -20 -41 -37 -60 -16 -18 -30 -37 -30 -41 0 -3
-12 -9 -27 -12 -67 -13 -100 -95 -49 -118 20 -9 33 -7 72 12 133 66 224 213
224 362 0 29 5 49 13 52 20 6 400 107 434 115 l32 8 -4 -39 c-5 -50 -55 -150
-77 -157 -10 -2 -20 -13 -23 -23 -4 -10 -12 -19 -20 -19 -8 0 -17 -9 -20 -20
-4 -11 -15 -20 -27 -20 -11 0 -38 -14 -59 -31 -29 -23 -39 -38 -39 -59 0 -51
42 -53 138 -5 126 63 225 198 255 347 l13 63 254 62 c140 34 263 63 273 63 14
0 17 -9 17 -57 0 -32 -7 -78 -16 -102 -16 -47 -81 -130 -101 -131 -7 0 -13 -5
-13 -11 0 -5 -15 -16 -34 -24 -19 -8 -37 -19 -41 -25 -3 -5 -17 -10 -31 -10
-17 0 -30 -10 -44 -32 -25 -42 -25 -44 5 -64 22 -15 28 -15 77 1 194 63 312
220 320 423 1 34 5 62 8 62 3 0 12 -11 22 -23z m-3045 -123 c161 -33 254 -99
297 -210 13 -35 33 -96 43 -135 20 -78 13 -102 -28 -107 -13 -2 -28 -8 -33
-13 -6 -5 -27 -9 -48 -9 -21 0 -55 -9 -75 -20 -21 -11 -54 -20 -74 -20 -20 0
-42 -7 -49 -15 -7 -8 -27 -15 -46 -15 -19 0 -41 -8 -51 -19 -14 -14 -39 -20
-105 -26 l-88 -7 0 35 c0 60 -39 190 -74 247 -47 76 -52 100 -28 152 48 108
118 153 275 177 4 0 42 -6 84 -15z m-593 -218 c88 -43 140 -100 180 -196 20
-46 36 -97 36 -112 0 -14 4 -38 10 -53 14 -36 -11 -85 -44 -85 -13 0 -29 -7
-36 -15 -7 -9 -29 -15 -55 -15 -27 0 -51 -7 -68 -20 -14 -11 -40 -20 -59 -20
-18 0 -48 -9 -66 -20 -18 -11 -48 -20 -67 -20 -18 0 -37 -4 -40 -10 -9 -14
-19 -12 -42 9 -15 14 -21 37 -26 93 -9 100 -36 185 -87 265 l-42 68 18 33 c24
44 85 92 148 114 69 25 170 18 240 -16z m-599 -150 c115 -52 174 -139 205
-306 5 -25 12 -57 15 -71 11 -43 -20 -96 -60 -103 -18 -4 -38 -13 -45 -21 -8
-9 -30 -15 -59 -15 -28 0 -59 -8 -79 -20 -18 -11 -46 -20 -63 -20 -16 0 -47
-9 -69 -20 -22 -11 -47 -20 -58 -20 -10 0 -23 -5 -30 -12 -21 -21 -48 20 -72
107 -11 43 -31 100 -44 125 -28 56 -84 157 -103 187 -13 19 -11 26 14 67 83
133 296 191 448 122z m-730 -110 c59 -28 130 -92 173 -157 72 -107 142 -277
142 -343 0 -32 -42 -56 -99 -56 -23 0 -55 -9 -73 -20 -18 -11 -47 -20 -64 -20
-18 0 -51 -9 -75 -20 -24 -11 -55 -20 -68 -20 -14 0 -33 -8 -44 -17 -18 -17
-19 -17 -32 0 -6 9 -17 17 -22 17 -6 0 -13 28 -17 63 -13 131 -65 269 -141
377 -38 54 -37 74 2 127 25 32 91 76 128 86 56 14 141 6 190 -17z m-663 -117
c77 -16 162 -65 216 -124 111 -122 188 -375 134 -441 -14 -18 -32 -23 -94 -27
-43 -3 -92 -13 -109 -21 -18 -9 -48 -16 -66 -16 -20 0 -46 -9 -60 -20 -19 -15
-41 -20 -83 -20 -40 0 -62 -5 -70 -16 -9 -9 -26 -14 -49 -12 l-35 3 -13 69
c-15 85 -66 195 -122 261 -22 27 -41 55 -41 61 0 6 -7 17 -15 24 -32 27 9 123
80 189 89 82 208 115 327 90z m-670 -239 c108 -31 255 -202 314 -366 42 -114
30 -141 -73 -165 -26 -6 -65 -19 -85 -30 -20 -10 -57 -19 -81 -19 -26 0 -49
-6 -56 -14 -6 -7 -31 -16 -56 -18 -24 -3 -51 -13 -60 -22 -11 -10 -33 -16 -65
-16 -39 0 -52 -4 -60 -20 -12 -22 -52 -27 -67 -7 -5 6 -22 46 -37 89 -15 42
-41 97 -57 123 -16 26 -43 75 -59 108 l-29 62 29 63 c33 70 114 162 175 198
85 50 173 61 267 34z m-649 -313 c64 -38 99 -84 172 -230 68 -135 72 -150 53
-192 -9 -21 -18 -25 -53 -25 -29 0 -47 -6 -60 -20 -13 -15 -31 -20 -65 -20
-34 0 -52 -5 -65 -20 -10 -11 -29 -20 -42 -20 -14 0 -36 -9 -50 -20 -14 -11
-40 -20 -58 -20 -20 0 -35 -6 -39 -15 -3 -8 -17 -15 -31 -15 -14 0 -33 -9 -42
-20 -10 -11 -29 -20 -42 -20 -14 0 -35 -10 -48 -22 -22 -21 -23 -21 -43 -3
-11 10 -21 14 -21 9 -1 -10 -9 24 -33 139 -53 258 36 459 235 531 67 25 174
17 232 -17z m-630 -993 c9 -19 17 -48 17 -63 0 -16 9 -64 21 -107 11 -44 23
-90 26 -104 2 -14 8 -34 13 -45 8 -20 16 -55 26 -125 3 -19 9 -44 14 -55 5
-11 11 -33 15 -50 3 -16 10 -49 16 -72 5 -24 14 -63 19 -88 6 -25 14 -64 19
-87 6 -24 14 -61 19 -83 6 -22 15 -62 21 -90 5 -27 18 -77 27 -110 9 -33 20
-76 25 -95 4 -19 13 -55 19 -80 6 -25 15 -64 21 -87 5 -24 14 -63 19 -88 6
-25 15 -65 20 -90 40 -181 39 -176 72 -305 34 -132 45 -177 58 -240 5 -25 14
-63 20 -85 7 -22 15 -58 20 -80 5 -22 14 -58 20 -80 6 -22 16 -60 20 -85 5
-25 14 -64 19 -87 6 -24 15 -60 20 -80 5 -21 14 -54 20 -73 15 -50 41 -148 52
-195 6 -22 14 -58 20 -80 6 -22 13 -53 15 -70 3 -16 9 -39 14 -50 5 -11 11
-33 14 -50 6 -38 33 -149 54 -225 6 -19 22 -78 36 -130 13 -52 34 -129 46
-170 20 -69 28 -101 45 -185 4 -16 10 -39 15 -50 5 -11 11 -32 14 -47 3 -16 9
-40 12 -55 3 -16 9 -37 14 -48 5 -11 11 -36 14 -55 3 -19 13 -60 22 -90 9 -30
20 -72 25 -92 5 -21 13 -55 19 -75 14 -57 41 -173 60 -258 5 -22 14 -60 20
-85 6 -25 15 -63 20 -85 19 -84 30 -132 45 -190 34 -129 45 -176 60 -265 4
-19 10 -44 15 -55 5 -11 11 -36 14 -55 5 -36 18 -101 35 -180 26 -125 37 -179
59 -302 6 -31 15 -73 21 -95 23 -89 33 -152 28 -167 -7 -18 -77 -22 -107 -6
-10 5 -105 14 -211 20 -111 5 -217 16 -249 25 -30 8 -92 15 -138 15 -56 0 -93
5 -113 16 -22 11 -70 16 -175 19 -95 3 -162 10 -196 21 -29 9 -82 20 -118 24
-122 16 -195 30 -240 45 -25 9 -81 18 -125 22 -50 3 -87 11 -98 21 -12 11 -47
17 -120 20 -96 4 -105 6 -135 33 l-32 28 11 108 c12 130 31 295 109 938 112
920 219 1800 229 1895 6 52 33 291 61 531 66 577 127 1183 140 1396 5 95 10
287 10 427 0 226 12 445 26 468 9 15 19 8 37 -28z m-182 -334 c-6 -69 -8 -174
-5 -235 5 -104 -5 -325 -26 -550 -6 -55 -14 -156 -19 -225 -11 -136 -24 -271
-41 -420 -6 -52 -15 -131 -20 -175 -4 -44 -13 -129 -19 -189 -6 -59 -14 -112
-17 -117 -3 -5 -9 -57 -15 -116 -5 -60 -14 -144 -20 -188 -26 -206 -29 -239
-59 -520 -5 -49 -14 -128 -20 -175 -6 -47 -15 -119 -20 -160 -5 -41 -14 -115
-20 -165 -6 -49 -14 -133 -19 -185 -5 -52 -11 -102 -14 -110 -3 -8 -8 -44 -12
-79 -3 -36 -9 -69 -12 -75 -4 -6 -11 -49 -15 -96 -5 -47 -13 -123 -18 -170 -6
-47 -15 -125 -20 -175 -6 -49 -14 -126 -20 -170 -5 -44 -15 -125 -21 -180 -6
-55 -15 -134 -20 -175 -5 -41 -14 -118 -19 -170 -5 -52 -14 -124 -20 -160 -5
-36 -14 -101 -19 -145 -10 -85 -37 -175 -52 -175 -5 0 -18 9 -29 20 -16 16
-20 33 -20 94 0 210 66 847 284 2751 117 1014 163 1437 201 1830 2 28 18 129
34 225 17 96 44 272 61 390 17 118 34 222 37 230 15 38 24 -122 14 -240z m759
-1490 c28 -102 66 -232 85 -290 19 -58 39 -125 45 -150 6 -25 19 -72 29 -105
10 -33 24 -80 30 -105 7 -25 21 -72 32 -105 10 -33 33 -114 50 -180 17 -66 35
-136 41 -155 5 -19 13 -51 18 -70 5 -19 14 -53 20 -75 6 -22 15 -56 20 -75 4
-19 14 -51 20 -70 7 -19 16 -53 20 -75 4 -22 15 -67 24 -100 9 -33 19 -73 22
-89 3 -16 8 -34 11 -39 6 -10 20 -61 33 -122 5 -22 13 -56 19 -75 5 -19 15
-52 20 -72 6 -21 16 -55 22 -75 6 -21 14 -56 19 -78 5 -22 14 -58 20 -80 6
-22 15 -58 20 -80 10 -46 24 -97 39 -140 5 -16 15 -50 21 -75 6 -25 16 -59 21
-76 5 -17 9 -44 9 -62 0 -17 5 -34 10 -37 6 -3 10 -19 10 -35 0 -16 4 -31 9
-34 5 -3 11 -23 14 -43 3 -21 10 -58 16 -83 6 -25 15 -65 20 -90 5 -25 15 -63
21 -85 20 -69 41 -159 47 -193 3 -18 9 -35 14 -38 5 -3 9 -19 9 -36 0 -17 9
-60 21 -97 36 -115 39 -127 39 -159 0 -17 5 -34 10 -37 6 -3 10 -22 10 -42 0
-20 4 -50 9 -67 5 -17 14 -49 20 -71 5 -22 15 -59 21 -83 6 -24 13 -56 15 -72
2 -16 7 -35 11 -42 5 -7 12 -40 16 -73 4 -33 12 -81 16 -108 8 -42 6 -50 -14
-73 -20 -20 -27 -23 -44 -14 -23 12 -19 -2 -66 240 -110 570 -308 1416 -537
2290 -109 417 -251 969 -291 1130 -91 376 -206 861 -205 868 1 10 29 -82 89
-298z"/>
<path d="M7093 12933 c-42 -5 -108 -69 -118 -114 -23 -109 -14 -227 27 -346
10 -28 9 -35 -18 -66 -20 -24 -38 -36 -56 -36 -19 -1 -28 -6 -28 -17 0 -9 -8
-18 -19 -21 -27 -7 -100 -140 -118 -215 -8 -37 -13 -88 -10 -124 5 -66 -10
-100 -48 -106 -18 -3 -20 2 -17 47 1 28 9 86 19 130 9 44 16 107 17 140 1 60
-18 125 -36 125 -5 0 -21 9 -35 20 -14 11 -40 20 -58 20 -18 0 -42 -9 -55 -20
-13 -11 -31 -20 -40 -20 -10 0 -23 -7 -30 -15 -7 -8 -19 -15 -26 -15 -8 0 -19
-9 -26 -20 -7 -11 -17 -20 -23 -20 -6 0 -25 -25 -43 -55 -18 -30 -38 -55 -45
-56 -51 -3 -84 -12 -103 -30 -23 -22 -30 -59 -42 -241 -6 -80 -11 -101 -29
-122 -13 -14 -29 -26 -36 -26 -8 0 -27 -23 -42 -52 -16 -29 -40 -62 -54 -75
-14 -12 -33 -29 -41 -36 -19 -18 -72 -28 -89 -17 -8 4 -29 3 -48 -2 -53 -14
-63 -4 -18 20 55 28 138 116 169 178 28 57 41 121 32 158 -8 34 -64 96 -86 96
-10 0 -23 7 -30 15 -9 11 -32 15 -80 15 -48 0 -71 -4 -80 -15 -7 -8 -18 -15
-25 -15 -23 0 -135 -192 -135 -231 0 -29 -63 -157 -95 -193 -16 -17 -33 -26
-44 -23 -10 2 -29 -2 -42 -9 -48 -27 -47 -13 5 56 93 124 166 277 206 434 33
129 23 215 -32 273 -32 34 -112 32 -167 -4 -23 -15 -41 -30 -41 -35 0 -4 -5
-8 -11 -8 -6 0 -30 -21 -53 -46 -81 -92 -153 -233 -167 -331 -11 -69 -3 -289
10 -326 9 -24 -18 -87 -37 -87 -27 0 -52 21 -52 44 0 13 7 43 15 66 39 109 -5
230 -83 230 -18 0 -47 8 -63 17 -26 16 -29 16 -47 0 -10 -9 -30 -17 -43 -17
-13 0 -30 -9 -37 -20 -7 -11 -19 -20 -26 -20 -8 0 -18 -9 -21 -20 -3 -11 -12
-20 -19 -20 -7 0 -22 -18 -35 -40 -12 -22 -28 -43 -35 -47 -7 -5 -17 -16 -22
-25 -6 -12 -9 9 -9 66 0 75 -3 87 -29 124 -16 23 -37 42 -46 42 -10 0 -23 7
-30 15 -9 10 -32 15 -75 15 -43 0 -66 -5 -75 -15 -7 -8 -25 -15 -41 -15 -18 0
-34 -8 -41 -20 -7 -11 -22 -20 -33 -20 -11 0 -26 -9 -33 -20 -7 -11 -19 -20
-26 -20 -8 0 -18 -9 -21 -20 -3 -11 -12 -20 -19 -20 -16 0 -106 -155 -106
-184 0 -12 -5 -27 -10 -32 -6 -6 -11 -64 -12 -132 -1 -112 1 -124 25 -174 47
-93 130 -138 257 -138 117 1 193 59 259 197 l34 71 33 -33 c68 -68 141 -56
243 40 l67 64 22 -21 c18 -18 32 -21 91 -20 76 2 110 12 148 42 23 18 27 18
54 5 68 -36 203 1 273 74 l28 30 42 -40 c56 -55 122 -73 209 -59 153 24 266
88 332 188 23 35 32 41 51 36 49 -12 69 15 98 138 60 255 165 425 278 453 25
6 26 4 30 -42 3 -26 0 -59 -5 -73 -13 -36 -28 -125 -34 -201 -7 -102 28 -164
97 -169 52 -4 69 1 120 35 50 34 52 34 77 18 36 -24 118 -20 177 8 49 23 136
101 197 178 l35 44 51 -27 c80 -40 167 -34 221 17 22 20 24 20 51 4 68 -40
153 -8 215 81 16 23 30 42 31 42 2 0 21 -18 43 -40 34 -34 46 -40 82 -40 54 0
103 24 139 67 l29 35 10 -30 c21 -61 92 -69 128 -15 11 17 29 71 38 120 54
279 107 398 198 444 40 20 42 21 55 3 7 -10 13 -25 13 -34 0 -9 9 -25 20 -35
47 -42 117 -3 105 59 -3 17 -13 48 -22 68 -14 33 -21 38 -61 44 -143 21 -210
-7 -288 -125 -27 -41 -28 -42 -81 -40 -29 1 -54 1 -56 -2 -11 -13 -47 -97 -47
-109 0 -19 -19 -77 -41 -128 -11 -23 -19 -48 -19 -55 0 -25 -71 -157 -84 -157
-25 0 -38 29 -43 92 -4 49 0 75 16 117 20 49 21 91 2 91 -5 0 -21 18 -36 40
-15 22 -35 40 -44 40 -10 0 -21 4 -27 10 -5 5 -37 13 -70 16 -48 5 -62 3 -73
-10 -7 -9 -22 -16 -32 -16 -39 0 -99 -89 -128 -190 -7 -25 -17 -55 -22 -68 -5
-13 -9 -40 -9 -60 0 -20 -11 -57 -23 -81 -19 -38 -29 -46 -69 -56 -48 -12 -56
-9 -90 31 -16 19 -16 24 14 114 39 121 49 292 24 409 -18 84 -63 186 -95 216
-12 11 -30 28 -40 38 -19 18 -94 28 -158 20z m90 -126 c29 -26 65 -91 80 -145
6 -20 12 -103 14 -184 4 -141 3 -148 -18 -169 -18 -18 -24 -20 -27 -8 -3 8
-20 33 -38 57 -62 81 -125 306 -109 390 14 79 52 102 98 59z m647 -390 c0 -43
-18 -91 -67 -175 -24 -41 -43 -77 -43 -82 0 -14 -24 -18 -49 -8 -23 8 -24 11
-18 75 12 128 52 212 119 248 20 11 26 10 41 -7 9 -11 17 -34 17 -51z m-737
-156 c20 -27 45 -68 57 -90 l21 -42 -31 -57 c-17 -31 -49 -76 -73 -99 -109
-109 -127 -114 -164 -44 -62 117 0 302 122 365 17 9 31 16 32 16 0 0 17 -22
36 -49z m-1600 -88 c8 -53 -8 -129 -50 -249 -24 -69 -155 -304 -169 -304 -24
0 -38 34 -42 108 -8 154 48 303 157 414 37 38 74 68 83 68 10 0 17 -12 21 -37z
m377 -278 c18 -20 22 -31 17 -61 -4 -20 -15 -46 -25 -58 -11 -12 -27 -36 -36
-54 -9 -18 -21 -30 -26 -27 -5 3 -11 -3 -15 -12 -3 -10 -21 -28 -39 -39 l-34
-22 -21 24 c-27 31 -27 68 1 141 42 113 125 164 178 108z m-1385 -155 c15 -17
17 -30 11 -86 -5 -52 -3 -71 9 -90 16 -25 52 -31 83 -15 16 9 17 3 10 -62 -4
-40 -7 -79 -7 -86 -1 -10 -4 -12 -11 -5 -5 5 -26 8 -45 6 -34 -4 -38 -9 -82
-96 -25 -50 -47 -93 -49 -95 -12 -13 -102 -19 -147 -10 -72 15 -102 49 -110
126 -8 75 5 178 31 236 59 134 247 243 307 177z m453 -32 c29 -29 6 -109 -50
-171 -19 -21 -47 -62 -62 -92 -15 -30 -31 -55 -36 -55 -5 0 -15 -3 -23 -6 -23
-9 -47 24 -47 65 0 81 59 188 132 242 44 31 67 36 86 17z"/>
<path d="M3456 12195 c-13 -10 -43 -15 -83 -15 -45 0 -65 -4 -69 -14 -3 -8
-29 -16 -66 -20 -34 -3 -69 -13 -78 -21 -9 -8 -30 -15 -47 -15 -17 0 -42 -9
-56 -20 -14 -11 -40 -20 -60 -20 -20 0 -44 -8 -57 -20 -13 -11 -35 -20 -50
-20 -15 0 -33 -7 -40 -15 -7 -9 -29 -15 -55 -15 -29 0 -47 -6 -60 -20 -14 -16
-31 -20 -75 -20 -42 0 -64 -5 -83 -20 -14 -11 -36 -20 -50 -20 -13 0 -32 -9
-42 -20 -12 -13 -31 -20 -55 -20 -24 0 -40 -5 -44 -15 -3 -9 -18 -15 -39 -15
-21 0 -41 -8 -52 -20 -11 -12 -31 -20 -50 -20 -19 0 -39 -8 -50 -20 -10 -11
-31 -20 -46 -20 -18 0 -32 -7 -39 -20 -9 -16 -21 -20 -64 -20 -39 0 -55 -4
-60 -15 -3 -8 -16 -15 -29 -15 -13 0 -32 -9 -42 -20 -11 -12 -31 -20 -52 -20
-28 0 -36 -5 -50 -35 -14 -29 -14 -41 -5 -73 7 -22 12 -50 12 -62 0 -13 4 -37
9 -54 5 -17 15 -51 21 -76 22 -82 174 -475 191 -494 5 -6 9 -17 9 -25 0 -8 8
-33 19 -55 10 -23 24 -57 31 -76 6 -19 16 -44 20 -55 15 -38 78 -220 85 -245
4 -14 13 -38 20 -55 15 -36 48 -133 65 -195 7 -25 16 -54 20 -65 4 -11 13 -38
19 -60 6 -22 26 -92 45 -155 20 -63 40 -137 47 -165 6 -27 15 -58 20 -67 5
-10 9 -31 9 -47 0 -17 5 -33 10 -36 6 -3 10 -19 10 -35 0 -16 4 -31 9 -34 5
-3 11 -23 14 -43 3 -21 10 -58 17 -83 6 -25 15 -63 20 -85 4 -22 20 -83 34
-135 29 -103 40 -144 55 -205 5 -22 15 -58 21 -80 6 -22 16 -58 21 -80 6 -22
14 -57 19 -77 6 -21 14 -55 19 -75 5 -21 14 -55 20 -75 6 -21 16 -55 22 -75 6
-21 14 -54 19 -73 4 -19 13 -48 19 -65 14 -41 41 -141 51 -190 5 -22 13 -56
18 -75 30 -104 61 -211 107 -370 20 -69 46 -159 57 -200 35 -133 26 -104 110
-365 21 -66 38 -124 38 -128 0 -5 6 -23 14 -40 7 -18 19 -52 26 -77 17 -62 49
-161 60 -185 5 -11 14 -38 21 -60 7 -22 17 -44 21 -50 4 -5 8 -17 8 -27 0 -9
6 -32 14 -50 8 -18 29 -71 46 -118 18 -47 39 -97 46 -112 30 -58 35 -57 292
45 363 146 469 176 893 256 366 70 489 97 505 113 23 23 38 127 37 268 0 233
-42 418 -279 1240 -58 201 -136 475 -174 610 -158 570 -272 932 -396 1257
-179 468 -221 606 -294 963 -92 451 -172 765 -225 886 -41 92 -115 214 -131
214 -8 0 -17 7 -20 15 -4 8 -18 15 -33 15 -15 0 -36 7 -47 15 -10 8 -30 14
-44 14 -14 0 -34 -6 -44 -14z m95 -126 c49 -49 92 -139 168 -349 24 -67 52
-176 81 -320 5 -25 14 -67 20 -95 6 -27 15 -72 20 -100 5 -27 15 -70 20 -95 6
-25 15 -65 20 -90 18 -91 33 -155 71 -305 6 -22 13 -55 16 -73 3 -18 9 -35 14
-38 5 -3 9 -16 9 -30 0 -13 4 -32 9 -42 5 -9 19 -51 32 -92 12 -41 26 -79 29
-85 4 -5 10 -23 14 -40 4 -16 15 -48 25 -70 23 -49 59 -140 74 -180 6 -16 19
-49 29 -72 10 -24 18 -50 18 -58 0 -8 4 -23 10 -33 9 -16 125 -366 148 -447
19 -64 52 -175 72 -235 9 -30 23 -75 30 -100 7 -25 18 -61 25 -80 24 -69 35
-107 35 -128 0 -11 5 -24 10 -27 6 -3 10 -21 10 -40 0 -19 4 -36 9 -39 5 -3
11 -20 14 -38 3 -18 10 -50 16 -70 49 -169 53 -182 58 -216 3 -18 9 -35 14
-38 5 -3 9 -16 9 -29 0 -13 6 -39 14 -57 8 -18 19 -51 24 -73 26 -101 35 -131
43 -147 5 -10 9 -29 9 -42 0 -14 4 -27 9 -30 5 -3 11 -20 14 -38 3 -18 10 -51
17 -73 6 -22 16 -56 21 -75 6 -19 14 -48 19 -65 19 -61 42 -141 52 -175 9 -33
13 -49 39 -152 12 -49 30 -131 61 -273 6 -27 12 -121 15 -207 5 -192 -2 -217
-67 -234 -27 -8 -54 -9 -73 -3 -23 6 -37 5 -54 -6 -12 -8 -32 -15 -44 -15 -11
0 -32 -9 -46 -20 -21 -16 -41 -20 -112 -20 -53 -1 -101 -7 -126 -16 -22 -9
-60 -19 -85 -23 -25 -4 -52 -11 -59 -16 -8 -4 -33 -9 -55 -11 -76 -4 -136 -16
-147 -30 -6 -8 -24 -14 -40 -14 -16 0 -43 -9 -61 -20 -22 -13 -51 -20 -84 -20
-37 0 -57 -6 -74 -20 -13 -11 -37 -20 -55 -20 -19 0 -39 -8 -50 -20 -11 -12
-31 -20 -50 -20 -20 0 -35 -6 -39 -15 -3 -8 -17 -15 -30 -15 -15 0 -30 -8 -36
-20 -6 -11 -18 -20 -27 -20 -9 0 -24 -7 -34 -16 -16 -14 -20 -14 -42 1 -14 9
-28 24 -32 33 -32 82 -165 465 -213 617 -160 505 -403 1380 -662 2390 -181
705 -287 1033 -513 1595 -135 334 -193 518 -171 540 39 38 1041 382 1409 483
151 42 178 44 206 16z"/>
<path d="M2975 11740 c-3 -5 -30 -10 -59 -10 -30 0 -60 -6 -72 -15 -10 -8 -34
-15 -52 -15 -20 0 -39 -8 -49 -20 -12 -13 -30 -20 -54 -20 -23 0 -42 -7 -54
-20 -12 -13 -31 -20 -54 -20 -24 0 -42 -7 -54 -20 -11 -14 -29 -20 -56 -20
-22 0 -44 -6 -51 -15 -7 -8 -25 -15 -41 -15 -17 0 -37 -9 -46 -20 -10 -12 -30
-20 -48 -20 -16 0 -43 -9 -60 -20 -16 -11 -44 -20 -61 -20 -35 0 -54 -29 -54
-80 0 -34 64 -200 123 -320 32 -64 48 -87 69 -94 21 -8 71 5 255 63 469 149
608 197 633 217 23 21 24 24 14 70 -17 74 -91 303 -115 356 -16 34 -30 50 -52
58 -38 13 -54 13 -62 0z m30 -182 c16 -35 32 -81 36 -103 4 -22 12 -57 17 -77
8 -29 6 -42 -7 -64 -15 -25 -23 -27 -86 -31 -42 -2 -75 -9 -85 -18 -9 -8 -25
-15 -34 -15 -10 0 -29 -9 -43 -20 -18 -14 -41 -20 -73 -20 -32 0 -55 -6 -73
-20 -14 -12 -40 -20 -61 -20 -19 0 -50 -9 -68 -20 -18 -11 -43 -20 -54 -20
-12 0 -27 -7 -34 -15 -7 -8 -27 -15 -45 -15 -40 0 -51 16 -99 137 -46 117 -51
139 -34 149 23 15 672 233 694 233 17 1 28 -13 49 -61z"/>
<path d="M3455 10999 c-16 -10 -40 -19 -51 -19 -12 0 -27 -7 -34 -15 -7 -8
-27 -15 -45 -15 -18 0 -44 -9 -58 -20 -23 -18 -40 -20 -215 -20 -174 0 -191
-2 -215 -20 -14 -11 -37 -20 -51 -20 -14 0 -29 -7 -34 -16 -5 -8 -15 -16 -23
-17 -9 -2 -32 -19 -52 -39 -34 -34 -42 -37 -109 -42 -40 -3 -76 -5 -79 -6 -9
0 -29 -49 -29 -70 0 -30 31 -40 106 -33 58 5 83 13 155 54 140 79 147 81 344
95 187 12 181 11 390 88 39 14 89 30 112 36 48 12 67 37 57 75 -6 24 -10 25
-73 24 -47 0 -75 -6 -96 -20z"/>
<path d="M3623 10603 c-12 -2 -27 -11 -33 -19 -7 -8 -22 -14 -34 -14 -12 0
-27 -9 -34 -20 -7 -12 -23 -20 -41 -20 -16 0 -34 -7 -41 -15 -7 -8 -23 -15
-36 -15 -13 0 -33 -9 -44 -20 -14 -14 -33 -20 -63 -20 -23 0 -60 -9 -82 -20
-22 -11 -50 -20 -64 -20 -13 0 -33 -7 -42 -16 -15 -13 -48 -18 -159 -22 -101
-3 -143 -9 -151 -18 -6 -8 -20 -14 -30 -14 -11 0 -27 -9 -36 -20 -10 -11 -23
-20 -29 -20 -17 0 -64 -65 -64 -89 0 -31 41 -54 73 -42 14 6 31 19 36 30 14
26 80 46 235 71 219 35 346 71 546 155 69 29 149 60 178 70 57 18 77 43 68 81
-6 22 -11 24 -69 23 -34 -1 -72 -4 -84 -6z"/>
<path d="M3667 9990 c-20 -11 -45 -20 -55 -20 -10 0 -25 -9 -35 -20 -9 -11
-25 -20 -36 -20 -10 0 -21 -7 -25 -15 -3 -8 -14 -15 -25 -15 -11 0 -28 -8 -38
-19 -16 -16 -38 -19 -178 -23 -118 -4 -170 -9 -199 -21 -21 -10 -55 -17 -76
-17 -22 0 -48 -8 -63 -20 -14 -11 -39 -20 -55 -20 -16 0 -35 -7 -42 -15 -7 -8
-21 -15 -31 -15 -15 0 -19 -8 -19 -39 0 -71 25 -75 165 -23 88 32 119 38 305
52 159 12 218 28 324 88 83 48 184 81 299 97 54 8 97 37 97 66 0 18 -8 19
-138 19 -118 0 -142 -3 -175 -20z"/>
<path d="M3780 9571 c-8 -5 -43 -11 -78 -15 -34 -3 -76 -13 -92 -21 -16 -8
-39 -15 -52 -15 -13 0 -33 -7 -45 -15 -19 -13 -79 -27 -218 -52 -16 -3 -39
-13 -50 -23 -12 -11 -43 -19 -82 -23 -34 -3 -72 -12 -85 -21 -12 -9 -31 -16
-42 -16 -11 0 -28 -7 -38 -16 -10 -10 -39 -18 -70 -20 -44 -2 -53 -6 -66 -29
-10 -20 -11 -34 -4 -53 5 -15 15 -47 22 -72 7 -25 16 -55 21 -68 5 -13 9 -33
9 -44 0 -12 4 -35 9 -52 5 -17 17 -58 26 -91 22 -75 41 -104 79 -120 34 -14
31 -15 219 53 154 57 311 103 527 156 80 20 160 43 178 51 28 13 32 19 32 55
0 46 -24 142 -77 308 -28 89 -41 117 -63 132 -31 22 -38 23 -60 11z m-4 -158
c19 -46 53 -154 64 -205 12 -63 -33 -98 -125 -98 -39 0 -72 -6 -95 -18 -19
-11 -57 -22 -83 -25 -27 -4 -58 -14 -70 -22 -12 -8 -40 -15 -63 -15 -25 0 -47
-6 -54 -15 -7 -8 -25 -15 -41 -15 -18 0 -34 -8 -41 -20 -10 -15 -24 -20 -54
-20 -28 0 -47 -6 -59 -20 -23 -26 -53 -25 -76 1 -15 17 -79 255 -79 293 0 7
17 18 38 24 315 97 653 190 694 191 23 1 31 -6 44 -36z"/>
<path d="M4266 8865 c-3 -8 -15 -15 -27 -15 -12 0 -37 -9 -55 -21 -32 -19 -49
-21 -208 -20 -158 0 -177 -2 -199 -19 -14 -11 -32 -20 -41 -20 -9 0 -19 -7
-22 -15 -4 -8 -11 -15 -16 -15 -6 0 -28 -18 -49 -40 l-39 -40 -103 -6 c-56 -4
-114 -13 -129 -20 -15 -8 -41 -14 -58 -14 -18 0 -43 -9 -57 -20 -14 -11 -39
-20 -55 -20 -16 0 -31 -6 -34 -15 -4 -8 -14 -15 -23 -15 -32 0 -53 -74 -29
-98 20 -20 52 -14 133 24 69 33 88 38 188 44 124 8 141 14 274 100 100 66 163
85 239 71 52 -10 69 -8 198 25 168 43 186 53 186 98 0 50 -58 91 -74 51z"/>
<path d="M4353 8380 c-10 -11 -25 -20 -34 -20 -9 0 -24 -9 -34 -20 -10 -11
-22 -20 -27 -20 -6 0 -21 -9 -35 -20 -24 -19 -39 -20 -176 -18 -131 2 -150 0
-158 -15 -6 -9 -21 -17 -34 -17 -14 0 -29 -8 -35 -20 -6 -11 -17 -20 -25 -20
-8 0 -19 -9 -25 -20 -7 -12 -21 -20 -37 -20 -15 0 -35 -7 -45 -17 -11 -10 -47
-19 -91 -24 -209 -23 -242 -30 -259 -49 -9 -11 -27 -20 -40 -20 -50 -1 -90
-78 -61 -119 20 -30 62 -23 109 19 40 34 70 43 224 65 138 20 218 45 278 88
97 70 87 67 228 67 l130 0 95 46 c150 73 177 101 149 155 -15 26 -74 26 -97
-1z"/>
<path d="M4616 7735 c-11 -8 -33 -15 -48 -15 -16 0 -40 -8 -55 -17 -18 -12
-56 -18 -139 -22 -70 -4 -118 -11 -126 -18 -6 -7 -24 -13 -38 -13 -15 0 -35
-9 -45 -20 -10 -11 -31 -20 -46 -20 -18 0 -32 -7 -39 -20 -6 -11 -20 -20 -31
-20 -11 0 -33 -10 -49 -22 -27 -20 -34 -20 -92 -10 -35 6 -82 17 -105 24 -37
10 -50 9 -110 -10 -37 -12 -78 -22 -89 -22 -12 0 -27 -7 -34 -15 -7 -8 -23
-15 -36 -15 -13 0 -32 -9 -41 -20 -10 -11 -25 -20 -35 -20 -21 0 -48 -37 -48
-67 0 -23 26 -43 57 -43 11 0 57 20 104 44 109 56 186 73 243 55 23 -8 79 -14
126 -14 76 0 92 3 145 31 221 114 192 104 327 113 95 7 139 15 193 35 109 42
142 86 90 120 -30 20 -54 20 -79 1z"/>
<path d="M4693 7153 c-12 -2 -27 -11 -33 -19 -8 -8 -30 -14 -57 -14 -30 0 -53
-7 -70 -20 -15 -12 -41 -20 -63 -20 -21 0 -43 -7 -50 -15 -7 -8 -25 -15 -41
-15 -18 0 -34 -8 -41 -20 -10 -16 -24 -20 -64 -20 -38 0 -55 -5 -69 -20 -11
-12 -31 -20 -49 -20 -17 0 -44 -9 -61 -20 -40 -27 -109 -27 -142 0 -20 16 -41
20 -98 20 -59 0 -75 -4 -90 -20 -10 -11 -30 -20 -45 -20 -15 0 -33 -7 -40 -15
-7 -8 -20 -15 -29 -15 -41 0 -86 -85 -61 -115 19 -23 62 -18 113 15 102 64
139 71 227 40 86 -30 124 -26 287 34 297 108 386 134 611 182 29 6 45 45 32
79 -9 23 -14 25 -77 24 -38 -1 -78 -4 -90 -6z"/>
<path d="M8485 11834 c-22 -9 -65 -20 -95 -24 -30 -4 -68 -15 -85 -24 -16 -9
-49 -16 -73 -16 -23 0 -59 -9 -79 -20 -21 -11 -54 -20 -73 -20 -19 0 -48 -7
-64 -15 -15 -8 -45 -15 -66 -15 -21 0 -48 -8 -61 -19 -14 -11 -50 -21 -88 -25
-36 -4 -74 -14 -85 -22 -11 -8 -32 -14 -46 -14 -14 0 -38 -9 -55 -20 -22 -14
-47 -20 -91 -20 -42 0 -65 -5 -74 -15 -7 -8 -24 -15 -39 -15 -14 0 -39 -8 -56
-17 -16 -9 -63 -19 -102 -23 -42 -4 -80 -13 -90 -22 -10 -8 -29 -18 -43 -21
-14 -3 -43 -12 -65 -21 -22 -8 -59 -15 -81 -16 -24 0 -47 -6 -54 -15 -7 -8
-29 -15 -49 -15 -20 0 -50 -8 -66 -19 -17 -10 -56 -20 -87 -23 -34 -3 -63 -11
-73 -21 -9 -9 -32 -17 -51 -17 -19 0 -51 -9 -71 -20 -21 -11 -56 -20 -79 -20
-25 0 -47 -6 -54 -15 -7 -8 -27 -15 -45 -15 -18 0 -43 -8 -56 -19 -15 -11 -47
-20 -81 -23 -34 -3 -65 -11 -76 -21 -10 -9 -29 -17 -41 -17 -12 0 -39 -9 -61
-20 -22 -11 -52 -20 -67 -20 -15 -1 -39 -7 -53 -15 -14 -8 -41 -14 -61 -15
-23 0 -42 -7 -54 -20 -15 -16 -31 -20 -85 -20 -54 0 -70 -4 -85 -20 -11 -13
-31 -20 -52 -20 -20 0 -46 -9 -60 -20 -14 -11 -38 -20 -52 -20 -15 0 -36 -7
-47 -15 -11 -8 -41 -15 -70 -15 -34 0 -59 -6 -75 -19 -13 -10 -46 -20 -72 -23
-26 -3 -56 -13 -66 -22 -10 -9 -31 -16 -47 -16 -16 0 -42 -9 -59 -20 -16 -11
-47 -20 -67 -20 -20 0 -43 -7 -52 -15 -8 -8 -28 -15 -45 -15 -18 0 -40 -9 -51
-20 -14 -14 -33 -20 -63 -20 -23 0 -59 -9 -80 -20 -20 -11 -45 -20 -55 -20
-11 0 -27 -9 -37 -20 -12 -14 -31 -20 -59 -20 -36 0 -44 -5 -65 -35 l-23 -35
32 -117 c18 -65 38 -131 45 -148 7 -16 19 -50 25 -75 15 -54 48 -157 60 -185
4 -11 13 -38 19 -60 18 -68 71 -238 85 -275 13 -32 65 -199 89 -280 5 -19 13
-44 18 -55 4 -11 10 -29 12 -40 7 -27 64 -222 77 -261 5 -17 10 -41 10 -54 0
-12 5 -41 11 -64 6 -22 15 -59 21 -81 53 -211 76 -263 230 -508 155 -247 186
-330 218 -587 28 -223 34 -255 60 -360 22 -90 85 -305 100 -345 4 -11 14 -39
21 -63 14 -48 52 -92 80 -92 10 0 51 13 91 29 217 86 697 236 1043 326 185 48
546 155 670 198 39 14 153 55 255 92 102 36 313 107 470 156 821 259 1292 431
1526 557 48 26 96 59 106 73 19 25 19 28 3 65 -9 21 -32 91 -51 154 -20 63
-68 183 -108 266 -58 119 -81 181 -111 295 -39 151 -75 262 -119 366 -27 64
-295 630 -385 811 -28 57 -67 159 -87 225 -63 216 -193 695 -261 967 -36 146
-72 275 -81 287 -17 27 -58 30 -117 7z m40 -176 c10 -35 20 -70 21 -78 2 -16
29 -121 45 -180 6 -19 14 -53 19 -75 5 -22 14 -64 21 -94 12 -53 12 -55 -15
-78 -22 -18 -39 -23 -85 -23 -37 0 -63 -5 -70 -14 -6 -7 -30 -16 -52 -19 -22
-3 -48 -12 -58 -21 -10 -9 -35 -16 -57 -16 -22 0 -56 -9 -77 -20 -20 -11 -52
-20 -69 -20 -18 0 -46 -9 -62 -19 -42 -28 -59 -14 -90 71 -14 40 -57 160 -96
267 -38 107 -70 197 -70 201 0 4 8 10 18 13 194 55 620 165 643 166 10 1 21
-19 34 -61z m-810 -181 c7 -18 27 -71 44 -118 16 -46 41 -115 56 -154 50 -132
78 -224 72 -238 -9 -24 -85 -57 -130 -57 -24 0 -56 -8 -75 -20 -18 -11 -46
-20 -63 -20 -16 0 -47 -9 -69 -20 -22 -11 -57 -20 -79 -20 -23 0 -58 -7 -80
-16 -22 -8 -52 -14 -67 -12 -27 3 -31 12 -120 275 -81 236 -91 273 -76 277 9
2 125 35 257 71 132 37 251 71 265 75 42 14 51 11 65 -23z m-707 -209 c12 -24
22 -50 22 -58 0 -8 12 -46 26 -85 14 -38 29 -83 34 -100 4 -16 20 -61 35 -100
43 -112 48 -131 42 -157 -8 -30 -45 -48 -100 -48 -25 0 -54 -8 -72 -20 -19
-13 -47 -20 -76 -20 -29 0 -51 -6 -59 -15 -7 -8 -23 -15 -35 -15 -12 0 -34 -9
-48 -20 -15 -12 -40 -20 -64 -20 -21 0 -53 -9 -71 -20 -18 -11 -42 -20 -53
-20 -12 0 -32 -9 -46 -20 -31 -24 -44 -16 -75 44 -29 56 -144 334 -179 431
l-28 80 42 13 c185 56 655 191 667 191 8 1 25 -18 38 -41z m-851 -251 c12 -28
25 -63 29 -77 7 -27 105 -259 148 -352 14 -31 26 -61 26 -66 0 -6 -14 -22 -31
-36 -22 -19 -42 -26 -73 -26 -30 0 -48 -6 -61 -20 -10 -11 -31 -20 -47 -20
-17 0 -41 -9 -55 -20 -16 -13 -41 -20 -67 -20 -23 0 -51 -7 -62 -15 -10 -8
-31 -15 -45 -15 -15 0 -38 -9 -52 -20 -15 -12 -40 -20 -64 -20 -21 0 -51 -9
-68 -20 -16 -11 -46 -20 -66 -20 -23 0 -42 -7 -54 -20 -10 -11 -23 -20 -30
-20 -24 0 -53 47 -73 115 -11 39 -38 131 -60 205 -40 139 -76 290 -70 294 1 2
158 49 348 105 190 56 356 106 370 111 14 5 27 9 30 9 3 0 15 -23 27 -52z
m2534 -4 c23 -55 41 -112 44 -136 4 -32 63 -254 85 -317 28 -83 33 -116 20
-140 -9 -17 -18 -21 -38 -17 -16 3 -35 -1 -46 -9 -11 -8 -41 -14 -67 -14 -29
0 -51 -6 -59 -15 -7 -8 -24 -15 -39 -15 -14 0 -39 -9 -56 -20 -22 -14 -47 -20
-93 -20 -50 0 -66 -4 -79 -20 -22 -25 -55 -26 -76 -2 -27 30 -226 577 -214
588 3 4 99 33 214 65 114 32 244 69 288 83 44 13 85 24 91 25 5 1 17 -16 25
-36z m-737 -207 c8 -19 28 -74 44 -122 17 -49 45 -127 62 -174 18 -47 35 -96
39 -110 5 -14 18 -47 30 -74 30 -65 23 -96 -22 -96 -18 0 -42 -7 -53 -15 -10
-8 -31 -15 -45 -15 -14 0 -34 -8 -43 -19 -13 -14 -35 -20 -96 -23 -52 -3 -86
-10 -97 -20 -10 -9 -44 -18 -75 -20 -34 -3 -65 -11 -76 -21 -21 -19 -67 -23
-77 -7 -8 12 -205 590 -202 591 40 12 576 158 584 158 7 1 19 -14 27 -33z
m-2689 -43 c4 -21 13 -50 21 -65 8 -15 14 -37 14 -49 0 -13 4 -36 9 -53 5 -17
15 -51 21 -76 7 -25 16 -53 21 -62 5 -10 9 -25 9 -33 0 -8 14 -58 31 -110 27
-82 29 -98 18 -112 -20 -24 -73 -43 -119 -43 -22 0 -57 -9 -77 -20 -21 -11
-54 -20 -74 -20 -20 0 -56 -9 -80 -20 -34 -15 -66 -20 -138 -20 -88 0 -95 -2
-131 -30 -32 -25 -39 -28 -50 -15 -13 16 -170 509 -170 535 0 13 66 37 288
109 158 51 305 98 327 106 64 21 72 19 80 -22z m1970 -165 c9 -24 28 -77 41
-118 14 -41 29 -84 33 -95 5 -11 17 -47 26 -80 10 -33 24 -73 33 -89 8 -17 23
-58 33 -93 l18 -63 -37 -25 c-26 -18 -50 -25 -83 -25 -31 0 -55 -7 -72 -20
-15 -12 -40 -20 -65 -20 -25 0 -47 -7 -62 -20 -17 -15 -37 -20 -75 -20 -35 0
-57 -5 -65 -15 -7 -8 -29 -15 -49 -15 -20 0 -52 -9 -72 -19 -34 -18 -72 -26
-112 -23 -22 2 -20 -1 -118 311 -44 140 -77 257 -72 261 24 22 607 206 659
209 17 1 26 -9 39 -41z m-814 -246 c9 -20 22 -57 29 -82 26 -95 33 -116 51
-164 11 -27 19 -57 19 -67 0 -10 5 -21 10 -24 6 -3 10 -17 10 -30 0 -13 9 -44
20 -70 24 -57 25 -78 4 -110 -14 -21 -24 -25 -64 -25 -30 0 -52 -6 -60 -15 -7
-8 -24 -15 -39 -15 -15 0 -44 -9 -66 -20 -22 -11 -56 -20 -78 -20 -21 0 -55
-9 -77 -20 -22 -11 -52 -20 -67 -20 -15 0 -41 -9 -58 -20 -20 -13 -47 -20 -80
-20 -28 0 -56 -5 -63 -12 -22 -22 -83 -37 -102 -25 -11 6 -52 99 -100 224
-121 315 -120 314 -107 318 7 2 156 49 332 104 176 55 352 111 390 125 39 13
72 25 75 25 3 0 12 -16 21 -37z m2523 -114 c19 -40 81 -170 138 -288 180 -371
183 -377 170 -405 -11 -23 -17 -25 -82 -25 -48 0 -79 -5 -95 -16 -15 -10 -58
-19 -109 -23 -46 -3 -90 -11 -97 -17 -8 -7 -42 -14 -76 -16 -39 -3 -69 -10
-81 -21 -22 -20 -75 -23 -89 -4 -11 14 -23 43 -178 440 -64 165 -115 301 -112
303 2 2 93 27 203 55 109 28 231 59 269 69 105 28 102 29 139 -52z m-719 -160
c22 -49 69 -167 174 -443 23 -60 56 -140 73 -177 28 -60 30 -70 18 -92 -11
-22 -22 -26 -92 -32 -45 -4 -85 -13 -93 -20 -7 -8 -25 -14 -40 -14 -14 0 -47
-9 -73 -19 -26 -11 -75 -22 -110 -24 -34 -3 -73 -12 -85 -20 -24 -15 -107 -28
-136 -20 -10 3 -24 24 -33 51 -9 26 -59 171 -113 322 -110 313 -128 370 -122
377 6 5 575 160 595 162 7 1 23 -23 37 -51z m-2741 -12 c17 -27 46 -103 46
-124 0 -7 9 -32 20 -54 11 -23 20 -48 20 -55 0 -7 9 -32 19 -56 33 -71 53
-120 67 -165 12 -38 12 -46 -2 -68 -13 -19 -25 -24 -59 -24 -29 0 -47 -6 -60
-20 -12 -13 -31 -20 -54 -20 -20 0 -45 -7 -55 -15 -11 -8 -32 -15 -46 -15 -15
0 -35 -9 -45 -20 -13 -14 -31 -20 -60 -20 -27 0 -51 -7 -68 -20 -14 -11 -38
-20 -54 -20 -15 0 -41 -9 -58 -20 -16 -11 -37 -20 -46 -20 -9 0 -19 -7 -23
-15 -3 -8 -16 -15 -29 -15 -30 0 -42 25 -107 240 -27 91 -67 221 -89 288 -34
108 -37 123 -22 119 37 -9 361 56 556 112 125 36 129 36 149 7z m1988 -158 c8
-13 20 -43 27 -68 17 -57 31 -99 41 -125 5 -11 11 -29 14 -40 7 -28 44 -136
55 -160 5 -11 20 -56 35 -100 15 -44 37 -111 50 -150 l24 -70 -47 -22 c-25
-13 -54 -23 -64 -23 -10 0 -35 -9 -57 -20 -23 -12 -59 -20 -87 -20 -26 0 -68
-9 -92 -20 -24 -11 -58 -20 -77 -20 -19 0 -51 -9 -71 -20 -22 -11 -57 -20 -82
-20 -27 0 -48 -6 -55 -15 -6 -8 -24 -17 -41 -21 -37 -7 -42 2 -113 211 -28 83
-60 177 -72 210 -51 138 -110 318 -106 322 6 7 667 191 687 192 9 1 23 -9 31
-21z m-823 -259 c11 -29 21 -60 21 -70 0 -10 4 -20 9 -23 5 -3 11 -18 14 -33
5 -30 89 -271 151 -437 23 -60 35 -107 32 -121 -7 -26 -50 -45 -101 -45 -18 0
-42 -9 -55 -20 -15 -13 -37 -20 -66 -20 -24 0 -49 -6 -58 -15 -8 -8 -27 -15
-43 -15 -16 0 -45 -9 -66 -20 -20 -11 -52 -20 -69 -20 -18 0 -48 -9 -66 -20
-18 -11 -46 -20 -62 -20 -26 0 -54 -9 -128 -43 -31 -15 -53 11 -76 88 -16 53
-119 333 -205 560 -17 44 -31 85 -31 91 0 5 66 30 148 54 321 96 608 179 618
179 6 1 21 -22 33 -50z m-900 -274 c17 -36 31 -73 31 -83 0 -10 4 -22 9 -27 5
-6 26 -57 46 -115 20 -58 57 -161 82 -230 49 -138 73 -213 70 -215 -1 -1 -16
-11 -34 -23 -20 -15 -46 -22 -76 -22 -29 0 -53 -7 -70 -20 -14 -11 -40 -20
-59 -20 -18 0 -50 -9 -71 -20 -20 -11 -56 -20 -80 -20 -24 0 -52 -7 -63 -15
-10 -8 -36 -15 -57 -15 -21 0 -56 -9 -78 -21 -23 -11 -63 -21 -94 -22 -65 -2
-73 5 -149 158 -68 134 -98 227 -131 398 -19 102 -22 133 -12 139 9 6 692 237
704 238 1 0 15 -29 32 -65z m3617 -50 c27 -85 36 -118 59 -230 4 -16 10 -39
14 -50 5 -11 13 -39 18 -63 10 -42 10 -44 -16 -54 -14 -5 -43 -18 -63 -29 -20
-10 -48 -19 -61 -19 -14 0 -30 -6 -36 -14 -6 -7 -32 -16 -58 -19 -26 -3 -52
-11 -57 -19 -6 -8 -35 -18 -65 -21 -29 -4 -64 -13 -77 -22 -13 -8 -34 -15 -47
-15 -14 0 -30 -7 -37 -15 -17 -20 -44 -19 -62 3 -11 12 -143 354 -205 529 -3
7 12 16 37 23 82 22 348 80 475 103 l130 24 17 -31 c10 -17 25 -53 34 -81z
m-802 -117 c13 -29 33 -78 44 -108 11 -30 39 -102 62 -160 69 -175 81 -218 63
-235 -8 -8 -23 -15 -32 -15 -10 0 -24 -7 -31 -15 -8 -10 -30 -15 -65 -15 -39
0 -56 -5 -70 -20 -11 -13 -31 -20 -52 -20 -20 0 -46 -9 -60 -20 -15 -12 -41
-20 -62 -20 -21 0 -46 -7 -57 -15 -10 -8 -34 -15 -52 -15 -20 0 -39 -8 -49
-20 -24 -27 -79 -27 -93 1 -15 27 -100 242 -160 404 -27 71 -51 137 -55 146
-4 12 1 18 17 22 13 2 87 18 165 35 78 17 193 47 255 66 129 40 178 54 196 55
7 1 23 -23 36 -51z m-784 -178 c11 -22 32 -73 46 -113 24 -68 35 -98 85 -234
12 -32 35 -88 52 -126 38 -84 31 -111 -29 -113 -70 -2 -144 -17 -155 -30 -6
-8 -30 -14 -53 -14 -23 0 -58 -9 -79 -20 -20 -11 -54 -20 -75 -20 -20 0 -54
-9 -75 -20 -22 -12 -56 -20 -85 -20 -35 0 -52 -5 -65 -20 -38 -44 -54 -27
-106 111 -21 57 -71 187 -111 288 -39 101 -70 184 -68 186 8 8 180 55 423 116
149 37 271 68 272 68 2 1 12 -17 23 -39z m-764 -388 c42 -108 84 -210 93 -227
39 -76 55 -164 29 -166 -56 -3 -69 -7 -86 -22 -12 -11 -36 -17 -68 -17 -27 0
-68 -9 -93 -20 -24 -11 -58 -20 -77 -20 -18 0 -48 -9 -66 -20 -21 -13 -51 -20
-83 -20 -28 0 -59 -6 -70 -14 -11 -7 -42 -16 -69 -20 -27 -3 -57 -12 -65 -20
-18 -15 -81 -27 -109 -20 -13 4 -25 27 -42 82 -12 42 -52 166 -87 275 -35 110
-63 201 -61 203 2 2 112 35 244 75 131 39 302 90 379 114 77 24 143 41 147 39
3 -2 41 -93 84 -202z m2560 81 c48 -100 83 -203 86 -250 2 -35 -24 -73 -52
-73 -9 0 -25 -9 -35 -20 -10 -11 -30 -20 -45 -20 -15 0 -39 -9 -53 -20 -14
-11 -36 -20 -49 -20 -13 0 -29 -9 -36 -20 -8 -14 -23 -20 -46 -20 -18 0 -39
-7 -46 -15 -7 -8 -23 -15 -35 -15 -12 0 -29 -9 -36 -19 -11 -14 -31 -20 -82
-24 -67 -6 -67 -6 -83 25 -8 16 -40 100 -70 186 -30 87 -59 167 -64 180 -15
35 -14 37 53 56 34 10 170 51 302 91 132 39 242 70 245 69 3 -1 24 -42 46 -91z
m-760 -181 c12 -26 27 -63 33 -82 31 -101 67 -198 82 -225 10 -16 19 -43 21
-59 3 -25 -3 -32 -41 -52 -24 -13 -55 -24 -67 -24 -13 0 -29 -9 -36 -20 -10
-16 -24 -20 -64 -20 -36 0 -59 -6 -77 -20 -14 -11 -37 -20 -52 -20 -15 0 -38
-9 -52 -20 -18 -14 -41 -20 -73 -20 -33 0 -50 -5 -54 -15 -4 -10 -19 -15 -49
-15 l-43 0 -19 63 c-10 34 -38 107 -63 162 -63 144 -92 213 -92 223 0 4 64 27
143 50 78 24 212 65 297 92 85 26 162 48 170 49 8 0 24 -20 36 -47z m-2745
-64 c18 -57 36 -110 40 -118 9 -19 42 -129 59 -195 8 -27 19 -59 27 -70 16
-23 17 -69 3 -96 -8 -14 -21 -19 -51 -19 -26 0 -42 -5 -45 -15 -4 -8 -18 -15
-34 -15 -15 0 -35 -9 -45 -20 -12 -14 -31 -20 -59 -20 -25 0 -51 -8 -66 -20
-14 -11 -39 -20 -56 -20 -18 0 -38 -8 -49 -20 -10 -11 -30 -20 -45 -20 -15 0
-33 -7 -40 -15 -7 -8 -26 -15 -43 -15 -17 0 -40 -9 -52 -20 -24 -22 -74 -35
-92 -23 -6 5 -18 63 -27 129 -20 157 -55 274 -117 403 -28 57 -47 107 -42 110
4 4 55 17 113 29 58 12 209 51 335 86 127 35 235 65 241 65 7 1 27 -45 45
-101z m2059 -313 c29 -60 58 -123 66 -139 19 -40 18 -115 -3 -138 -10 -12 -30
-18 -55 -18 -25 0 -50 -8 -65 -20 -17 -13 -41 -20 -68 -20 -29 0 -45 -5 -49
-15 -3 -8 -17 -15 -31 -15 -14 0 -34 -9 -45 -20 -15 -15 -33 -20 -69 -20 -33
0 -56 -6 -74 -20 -14 -11 -36 -20 -50 -20 -13 0 -30 -7 -37 -15 -7 -8 -28 -17
-47 -21 -19 -4 -37 -13 -40 -20 -8 -21 -70 -18 -82 4 -5 9 -23 71 -41 137 -17
66 -50 176 -72 244 -22 68 -36 127 -31 131 4 4 94 28 198 54 105 25 260 66
345 90 l155 43 22 -46 c12 -25 45 -95 73 -156z m-920 -37 c6 -13 14 -30 19
-38 13 -23 31 -84 31 -108 0 -11 4 -23 9 -26 5 -3 11 -18 14 -33 7 -36 23 -98
36 -143 32 -112 39 -155 28 -168 -17 -21 -64 -42 -94 -42 -15 0 -41 -9 -58
-20 -18 -12 -47 -20 -71 -20 -25 0 -47 -6 -54 -15 -7 -8 -29 -15 -50 -15 -22
0 -48 -8 -63 -20 -15 -12 -40 -20 -64 -20 -21 0 -55 -9 -76 -20 -20 -11 -50
-20 -66 -20 -16 0 -49 -9 -75 -20 -43 -20 -138 -32 -150 -19 -3 3 -17 52 -32
110 -14 57 -45 174 -70 260 -24 86 -44 163 -44 171 0 11 31 24 113 47 112 31
685 179 700 180 4 1 12 -9 17 -21z m-943 -283 c33 -93 49 -143 63 -210 9 -40
23 -100 40 -165 5 -19 14 -54 19 -78 15 -59 0 -82 -55 -82 -26 0 -51 -7 -67
-20 -14 -11 -39 -20 -57 -20 -18 0 -43 -9 -57 -20 -15 -12 -41 -20 -62 -20
-21 0 -46 -7 -57 -15 -10 -8 -29 -15 -42 -15 -12 0 -30 -9 -39 -20 -13 -15
-30 -20 -63 -20 -26 0 -58 -8 -75 -18 -16 -10 -55 -22 -86 -25 -64 -8 -58 -14
-94 98 -18 54 -89 331 -98 381 l-6 31 239 92 c302 117 451 171 468 168 8 -1
20 -20 29 -42z"/>
<path d="M9925 9517 c4 -12 31 -71 59 -132 119 -252 256 -544 281 -600 31 -69
143 -362 185 -482 33 -95 38 -105 50 -98 9 6 -24 103 -129 383 -64 170 -119
295 -258 582 -49 102 -107 224 -128 272 -21 48 -45 90 -53 93 -10 4 -12 -1 -7
-18z"/>
<path d="M10080 8875 c0 -11 192 -440 201 -449 5 -6 9 -1 9 14 0 37 -184 440
-200 440 -6 0 -10 -2 -10 -5z"/>
<path d="M10300 8384 c0 -19 58 -165 71 -178 19 -20 8 35 -23 113 -29 76 -48
101 -48 65z"/>
<path d="M746 6549 c-23 -82 -29 -113 -47 -254 -5 -38 -11 -92 -15 -118 -5
-38 -2 -52 11 -68 19 -20 45 -26 45 -9 0 6 -7 13 -15 16 -22 9 -19 102 9 284
14 85 23 157 21 159 -3 2 -6 -2 -9 -10z"/>
<path d="M845 6393 c-4 -10 -10 -59 -12 -109 -6 -91 -5 -92 21 -109 37 -25 42
-13 10 24 -26 31 -26 31 -14 117 11 85 9 112 -5 77z"/>
<path d="M931 6146 c10 -9 79 -14 74 -5 -4 5 -22 9 -42 9 -20 0 -34 -2 -32 -4z"/>
<path d="M1355 5992 c15 -15 215 -27 215 -13 0 7 -22 11 -57 11 -32 0 -83 3
-113 6 -38 5 -52 3 -45 -4z"/>
</g>
</svg>
