<?xml version="1.0" standalone="no"?>
<!DOCTYPE svg PUBLIC "-//W3C//DTD SVG 20010904//EN"
 "http://www.w3.org/TR/2001/REC-SVG-20010904/DTD/svg10.dtd">
<svg version="1.0" xmlns="http://www.w3.org/2000/svg"
 width="1080.000000pt" height="1920.000000pt" viewBox="0 0 1080.000000 1920.000000"
 preserveAspectRatio="xMidYMid meet">

<g transform="translate(0.000000,1920.000000) scale(0.100000,-0.100000)"
fill="#000000" stroke="none">
<path d="M1990 15985 c-14 -8 -43 -14 -66 -15 -22 0 -44 -3 -48 -7 -4 -5 -29
-9 -54 -10 -105 -4 -202 -20 -220 -36 -12 -11 -36 -17 -64 -17 -32 0 -50 -6
-63 -20 -13 -15 -31 -20 -64 -20 -35 0 -51 -5 -64 -21 -10 -11 -25 -18 -33
-15 -8 3 -20 -3 -26 -14 -8 -12 -24 -20 -40 -20 -17 0 -31 -8 -38 -20 -6 -12
-21 -20 -35 -20 -14 0 -29 -8 -35 -20 -7 -13 -21 -20 -39 -20 -17 0 -31 -7
-35 -15 -3 -8 -17 -20 -31 -25 -14 -5 -25 -14 -25 -20 0 -5 -6 -10 -13 -10 -8
0 -33 -18 -58 -40 -24 -22 -49 -40 -56 -40 -6 0 -15 -9 -18 -20 -3 -11 -13
-20 -21 -20 -8 0 -17 -7 -20 -15 -4 -8 -13 -15 -21 -15 -8 0 -17 -9 -20 -20
-3 -11 -11 -20 -19 -20 -7 0 -18 -9 -24 -20 -6 -11 -17 -20 -25 -20 -8 0 -15
-5 -15 -10 0 -6 -11 -20 -25 -32 -14 -12 -37 -41 -51 -65 -14 -24 -29 -43 -34
-43 -5 0 -28 -33 -51 -72 -23 -40 -54 -86 -69 -103 -43 -46 -126 -213 -187
-375 -71 -189 -106 -396 -106 -635 0 -166 21 -352 52 -457 6 -21 15 -53 20
-70 52 -178 150 -384 267 -558 131 -195 293 -350 526 -504 104 -68 320 -177
398 -201 30 -9 73 -23 95 -31 22 -7 69 -18 105 -24 36 -6 99 -17 140 -25 41
-8 107 -14 145 -15 39 0 75 -4 80 -8 13 -9 91 -103 262 -317 49 -60 98 -121
110 -135 31 -36 130 -159 188 -231 28 -34 76 -94 108 -133 32 -39 71 -87 87
-106 134 -165 217 -267 227 -280 108 -136 198 -246 203 -250 4 -3 73 -88 155
-190 275 -341 359 -445 389 -480 17 -20 47 -55 66 -79 19 -24 45 -55 57 -70
13 -14 64 -78 114 -141 50 -63 97 -122 105 -130 14 -15 127 -154 174 -215 14
-18 44 -55 67 -81 23 -27 81 -98 129 -159 48 -60 113 -140 143 -176 31 -37 79
-95 106 -130 28 -35 75 -93 105 -130 30 -37 89 -108 130 -159 82 -100 191
-190 286 -235 33 -15 67 -31 76 -36 9 -4 54 -18 100 -31 66 -18 110 -22 215
-23 l132 0 20 -38 c12 -22 21 -46 21 -55 0 -15 14 -65 31 -107 4 -11 10 -29
13 -40 11 -42 122 -336 152 -400 12 -28 32 -75 44 -105 12 -30 30 -69 41 -86
10 -17 19 -37 19 -44 0 -20 165 -350 243 -486 77 -134 211 -335 276 -414 20
-25 50 -63 66 -85 57 -77 271 -281 362 -345 175 -123 346 -194 522 -220 550
-78 1645 496 3104 1628 l147 114 0 75 c0 47 -4 72 -10 68 -5 -3 -10 -13 -10
-21 0 -8 -9 -14 -22 -14 -12 0 -35 -16 -55 -40 -19 -22 -42 -40 -51 -40 -17 0
-70 -43 -143 -115 -20 -19 -42 -35 -50 -35 -8 0 -22 -9 -32 -20 -9 -11 -24
-20 -32 -20 -8 0 -15 -7 -15 -15 0 -8 -9 -15 -19 -15 -11 0 -23 -9 -26 -20 -3
-11 -13 -20 -20 -20 -8 0 -19 -9 -25 -20 -6 -11 -20 -20 -31 -20 -11 0 -22 -7
-25 -15 -4 -8 -12 -15 -19 -15 -12 0 -26 -12 -107 -86 -21 -19 -44 -34 -51
-34 -7 0 -20 -9 -30 -20 -10 -12 -22 -18 -27 -15 -5 3 -14 -4 -20 -15 -6 -11
-17 -20 -25 -20 -7 0 -17 -9 -20 -20 -3 -11 -15 -20 -25 -20 -11 0 -24 -9 -30
-20 -6 -11 -20 -20 -31 -20 -11 0 -22 -6 -25 -14 -3 -8 -19 -19 -35 -25 -16
-5 -29 -15 -29 -20 0 -6 -9 -11 -20 -11 -10 0 -24 -9 -30 -20 -6 -11 -17 -20
-25 -20 -8 0 -19 -9 -25 -20 -6 -11 -19 -20 -30 -20 -11 0 -24 -9 -30 -20 -6
-11 -21 -20 -34 -20 -13 0 -26 -7 -30 -15 -3 -8 -11 -15 -17 -15 -6 0 -33 -18
-59 -40 -26 -22 -55 -40 -64 -40 -8 0 -20 -9 -26 -20 -6 -11 -21 -20 -34 -20
-13 0 -26 -7 -30 -15 -3 -8 -12 -15 -20 -15 -9 0 -20 -9 -26 -20 -6 -11 -19
-20 -30 -20 -11 0 -24 -9 -30 -20 -6 -11 -19 -20 -28 -20 -10 0 -25 -9 -35
-20 -9 -11 -26 -20 -37 -20 -11 0 -23 -7 -26 -15 -4 -8 -15 -15 -25 -15 -11 0
-27 -9 -36 -20 -10 -11 -25 -20 -35 -20 -10 0 -23 -9 -30 -20 -7 -11 -22 -20
-33 -20 -11 0 -26 -9 -33 -20 -7 -12 -23 -20 -41 -20 -16 0 -34 -7 -41 -15 -7
-8 -19 -15 -26 -15 -8 0 -19 -9 -26 -20 -7 -11 -23 -20 -35 -20 -12 0 -27 -9
-33 -20 -7 -13 -21 -20 -39 -20 -15 0 -36 -9 -46 -20 -10 -11 -31 -20 -47 -20
-16 0 -31 -6 -34 -15 -4 -8 -19 -15 -35 -15 -18 0 -32 -7 -39 -20 -6 -12 -21
-20 -35 -20 -14 0 -29 -8 -35 -20 -8 -15 -21 -20 -49 -20 -23 0 -48 -8 -64
-20 -14 -11 -39 -20 -56 -20 -19 0 -34 -6 -37 -15 -4 -10 -20 -15 -49 -15 -27
0 -51 -7 -68 -20 -14 -11 -36 -20 -50 -20 -14 0 -44 -9 -68 -20 -39 -17 -66
-20 -257 -20 -200 0 -213 1 -229 20 -10 11 -30 20 -46 20 -16 0 -40 9 -54 20
-14 11 -34 20 -43 20 -10 0 -23 7 -30 15 -7 8 -20 15 -30 15 -9 0 -25 9 -35
20 -10 11 -23 20 -30 20 -7 0 -20 9 -30 20 -10 11 -23 20 -29 20 -6 0 -28 16
-49 35 -21 19 -40 35 -42 35 -10 0 -146 133 -210 205 -74 83 -180 223 -252
335 -31 47 -62 94 -69 105 -53 76 -79 123 -170 305 -188 378 -299 648 -431
1050 l-58 175 -47 3 c-26 2 -62 -1 -80 -6 -55 -14 -287 6 -329 28 -20 11 -46
20 -57 20 -11 0 -25 7 -32 15 -7 8 -20 15 -30 15 -9 0 -25 9 -35 20 -10 11
-26 20 -37 20 -10 0 -18 7 -18 15 0 9 -7 18 -16 22 -29 11 -145 136 -216 234
-14 20 -64 81 -110 136 -45 55 -96 117 -113 138 -36 44 -79 97 -160 197 -33
40 -65 80 -72 88 -98 123 -240 297 -248 305 -6 6 -23 26 -37 46 -14 19 -35 46
-47 60 -23 27 -160 196 -295 364 -49 60 -103 126 -120 146 -17 19 -44 52 -61
73 -29 37 -85 106 -124 152 -10 12 -42 53 -72 90 -29 38 -56 71 -59 74 -3 3
-24 27 -45 55 -22 27 -47 59 -57 70 -18 22 -62 77 -118 146 -19 24 -42 50 -50
59 -8 8 -31 36 -49 60 -19 25 -41 52 -48 60 -7 8 -35 42 -61 75 -40 51 -141
173 -186 225 -7 8 -26 33 -42 55 -16 22 -51 67 -79 100 -27 32 -53 64 -57 70
-4 5 -25 31 -45 56 -59 71 -180 219 -273 334 -30 37 -65 80 -77 94 -25 29 -26
30 -66 83 l-27 37 32 24 c18 13 393 277 832 587 l800 562 23 -28 c13 -16 42
-60 65 -99 60 -103 196 -330 355 -590 77 -126 191 -313 253 -415 62 -102 129
-210 150 -240 21 -30 73 -116 115 -190 43 -74 112 -189 153 -255 41 -66 121
-196 177 -290 107 -177 332 -548 541 -890 68 -110 176 -288 240 -395 65 -107
134 -220 155 -251 34 -51 188 -309 218 -367 7 -13 23 -61 37 -105 33 -113 34
-304 3 -387 -41 -108 -131 -270 -150 -270 -5 0 -20 -22 -33 -49 l-25 -48 19
-74 c10 -41 26 -101 35 -134 9 -33 20 -73 25 -90 21 -77 131 -410 165 -500 15
-38 33 -86 40 -106 107 -287 299 -636 460 -839 147 -184 302 -316 460 -391
141 -66 197 -80 361 -86 156 -6 226 5 451 73 642 193 1477 705 2449 1501 282
230 254 199 253 290 0 74 -1 77 -16 56 -8 -13 -21 -23 -27 -23 -6 0 -26 -16
-43 -35 -18 -19 -38 -35 -44 -35 -11 0 -57 -40 -114 -97 -12 -13 -27 -23 -33
-23 -5 0 -12 -7 -16 -15 -3 -8 -12 -15 -20 -15 -8 0 -18 -9 -21 -20 -3 -11
-13 -20 -20 -20 -8 0 -19 -9 -25 -20 -6 -11 -16 -20 -23 -20 -7 0 -20 -9 -30
-20 -9 -11 -23 -20 -31 -20 -8 0 -16 -7 -20 -15 -3 -8 -12 -15 -20 -15 -8 0
-18 -9 -21 -20 -3 -11 -13 -20 -20 -20 -8 0 -19 -9 -25 -20 -6 -11 -19 -20
-30 -20 -11 0 -24 -9 -30 -20 -6 -11 -17 -20 -24 -20 -8 0 -16 -7 -20 -15 -3
-8 -12 -15 -20 -15 -8 0 -18 -9 -21 -20 -3 -11 -13 -20 -20 -20 -8 0 -19 -9
-25 -20 -6 -11 -17 -20 -24 -20 -7 0 -21 -9 -31 -20 -10 -11 -24 -20 -30 -20
-7 0 -15 -7 -19 -15 -3 -8 -12 -15 -20 -15 -8 0 -18 -9 -21 -20 -3 -11 -14
-20 -23 -20 -10 0 -23 -9 -30 -20 -7 -11 -19 -20 -27 -20 -8 0 -19 -9 -25 -20
-6 -11 -18 -20 -27 -20 -9 0 -23 -7 -32 -15 -9 -8 -26 -23 -38 -35 -13 -11
-29 -20 -36 -20 -7 0 -18 -9 -25 -20 -7 -11 -19 -20 -27 -20 -8 0 -19 -9 -25
-20 -6 -11 -20 -20 -31 -20 -11 0 -22 -7 -25 -15 -4 -8 -14 -15 -25 -15 -10 0
-23 -9 -29 -20 -6 -11 -18 -20 -28 -20 -9 0 -23 -9 -30 -20 -7 -11 -20 -20
-30 -20 -9 0 -23 -9 -30 -20 -7 -11 -21 -20 -31 -20 -10 0 -21 -7 -25 -15 -3
-8 -14 -15 -25 -15 -11 0 -25 -9 -31 -20 -6 -11 -19 -20 -30 -20 -11 0 -24 -9
-30 -20 -6 -11 -19 -20 -28 -20 -10 0 -25 -9 -35 -20 -9 -11 -25 -20 -36 -20
-10 0 -21 -7 -25 -15 -3 -8 -14 -15 -24 -15 -10 0 -27 -9 -37 -20 -10 -11 -28
-20 -41 -20 -14 0 -25 -8 -29 -20 -4 -12 -15 -20 -29 -20 -13 0 -31 -9 -41
-20 -10 -12 -25 -18 -32 -16 -7 3 -19 -3 -25 -14 -7 -11 -23 -20 -35 -20 -12
0 -27 -9 -33 -20 -7 -13 -21 -20 -40 -20 -19 0 -33 -7 -40 -20 -6 -11 -21 -20
-34 -20 -13 0 -31 -9 -42 -21 -12 -13 -27 -19 -42 -16 -16 3 -27 -2 -35 -14
-7 -11 -23 -19 -38 -19 -14 0 -34 -9 -44 -20 -11 -12 -31 -20 -50 -20 -19 0
-39 -8 -50 -20 -12 -13 -31 -20 -54 -20 -25 0 -40 -6 -49 -20 -8 -14 -23 -20
-46 -20 -18 0 -39 -7 -46 -15 -8 -9 -30 -15 -59 -15 -28 0 -59 -8 -79 -20 -22
-13 -50 -20 -87 -20 -29 0 -86 -7 -126 -15 -65 -14 -82 -14 -161 0 -48 8 -104
15 -123 15 -22 0 -43 8 -55 20 -11 11 -33 20 -49 20 -16 0 -31 6 -35 15 -3 8
-17 15 -30 15 -15 0 -30 8 -36 20 -6 11 -16 20 -22 20 -6 0 -18 7 -27 15 -9 8
-42 35 -73 60 -67 53 -149 138 -219 226 -28 35 -61 77 -75 92 -13 16 -56 83
-95 148 -223 375 -377 766 -544 1378 l-12 44 55 76 c113 157 153 274 159 477
8 231 -13 291 -220 634 -400 663 -658 1087 -694 1140 -17 25 -59 95 -94 155
-34 61 -106 180 -159 265 -53 85 -145 236 -205 335 -130 217 -370 613 -525
865 -62 102 -164 271 -227 375 -63 105 -148 242 -187 305 -97 152 -198 327
-199 343 -1 16 11 91 34 207 25 129 41 442 29 569 -11 121 -44 281 -76 381
-58 175 -171 418 -209 450 -8 7 -28 35 -44 64 -17 28 -47 71 -68 96 -63 75
-334 340 -348 340 -7 0 -30 16 -51 35 -21 19 -45 35 -54 35 -9 0 -25 9 -35 20
-10 11 -26 20 -36 20 -10 0 -23 9 -29 20 -6 11 -20 20 -30 20 -11 0 -29 9 -40
20 -11 11 -33 20 -49 20 -16 0 -31 6 -35 15 -3 8 -14 15 -24 15 -10 0 -27 9
-37 20 -12 13 -31 20 -54 20 -20 0 -49 9 -66 20 -16 11 -45 20 -64 20 -19 0
-43 7 -53 17 -13 11 -49 19 -125 25 -60 5 -121 13 -137 18 -16 6 -54 10 -85
10 -31 0 -78 7 -105 15 -61 19 -104 19 -136 0z m123 -139 c16 -12 17 -21 7
-82 -7 -42 -17 -74 -27 -81 -29 -23 -67 -15 -96 19 -26 29 -28 36 -21 87 3 31
8 59 11 64 7 12 107 7 126 -7z m-273 -45 c0 -61 -22 -91 -49 -66 -10 8 -24 15
-32 15 -8 0 -27 6 -42 13 -21 9 -27 18 -25 37 3 22 10 26 63 36 33 7 66 12 73
13 8 1 12 -15 12 -48z m540 -11 c24 -6 25 -10 25 -72 0 -37 -4 -70 -8 -75 -15
-14 -106 -5 -132 14 -18 13 -24 25 -20 43 2 14 7 44 10 68 l7 43 46 -7 c26 -4
58 -10 72 -14z m283 -52 c13 -7 17 -21 17 -63 0 -78 -5 -85 -57 -85 -55 0
-106 24 -99 48 2 9 7 40 11 68 l6 51 52 -5 c29 -2 60 -9 70 -14z m259 -88 c30
-18 32 -23 29 -67 -1 -26 -8 -51 -14 -55 -22 -14 -64 -8 -90 12 -14 11 -30 20
-36 20 -14 0 -14 25 0 89 l10 49 35 -14 c18 -8 48 -23 66 -34z m-1457 27 l60
-13 -3 -65 c-4 -78 -18 -93 -77 -83 -71 12 -78 20 -70 93 6 65 11 81 23 81 4
-1 34 -7 67 -13z m-225 -66 c0 -39 -16 -63 -29 -44 -3 5 -22 14 -41 19 l-34
10 44 26 c25 15 48 27 53 28 4 0 7 -18 7 -39z m517 9 c46 -11 52 -15 49 -33
-3 -12 -7 -42 -11 -67 -8 -60 -19 -70 -75 -70 -43 0 -49 3 -60 30 -11 27 -7
130 6 152 4 6 7 6 91 -12z m316 -56 c23 -7 24 -99 1 -132 -20 -29 -98 -31
-131 -3 -21 18 -21 22 -11 86 l11 67 56 -7 c31 -3 64 -8 74 -11z m1052 -39
c30 -25 23 -31 -22 -19 -14 4 -23 14 -23 25 0 25 9 24 45 -6z m-792 -11 c26
-5 27 -8 27 -68 0 -85 -16 -106 -80 -106 -45 0 -51 3 -65 30 -13 25 -14 40 -4
96 l11 65 42 -6 c22 -3 53 -8 69 -11z m242 -47 l60 -13 3 -48 c2 -27 -2 -62
-9 -77 -10 -26 -16 -29 -60 -29 -70 0 -93 25 -84 88 9 65 16 92 24 92 3 -1 33
-6 66 -13z m-1428 -18 c62 -11 64 -12 59 -38 -3 -14 -8 -47 -11 -74 -6 -44 -8
-47 -33 -45 -15 1 -33 -1 -39 -5 -7 -4 -27 2 -45 14 l-34 22 10 68 c5 38 13
69 19 69 6 0 39 -5 74 -11z m-231 -64 c-5 -27 -12 -35 -29 -35 -47 0 -50 16
-11 48 21 17 40 30 42 27 2 -2 1 -20 -2 -40z m2006 11 c24 -35 -5 -136 -39
-136 -7 0 -25 -7 -39 -17 -25 -16 -26 -15 -56 17 -28 31 -29 37 -23 88 4 30 9
60 11 67 6 14 135 -2 146 -19z m-1497 1 c64 -14 72 -24 74 -93 2 -49 -26 -75
-84 -80 -44 -3 -52 -1 -70 22 -19 24 -20 32 -12 95 6 39 15 69 21 69 6 -1 38
-6 71 -13z m1712 -39 c59 -11 64 -13 59 -34 -4 -13 -2 -26 4 -29 15 -9 12 -42
-5 -75 -14 -27 -21 -30 -61 -30 -33 0 -54 6 -73 23 -25 21 -26 24 -17 90 4 37
13 67 19 67 5 0 39 -5 74 -12z m-1436 -14 c41 -6 52 -11 60 -31 17 -46 10 -87
-20 -123 -26 -31 -32 -34 -50 -22 -11 6 -26 12 -33 12 -7 1 -23 9 -36 20 -22
18 -22 21 -11 90 9 52 16 70 25 66 8 -3 37 -8 65 -12z m1669 -37 c42 -33 90
-103 90 -129 0 -27 -1 -28 -55 -28 -81 0 -95 17 -82 103 10 67 19 77 47 54z
m-1343 -19 c35 -29 14 -148 -27 -148 -10 0 -23 -7 -30 -15 -18 -22 -28 -19
-62 17 -29 31 -29 32 -18 97 l11 66 57 -3 c31 -2 62 -8 69 -14z m254 -54 c31
-5 37 -11 47 -47 16 -51 1 -104 -32 -117 -31 -12 -104 4 -122 26 -11 14 -13
34 -8 79 3 33 9 64 11 69 3 4 20 5 37 2 17 -4 47 -9 67 -12z m-1441 -15 l50
-11 0 -59 c0 -85 -18 -109 -81 -109 -40 0 -50 4 -60 23 -7 12 -15 24 -19 27
-4 3 -3 35 3 73 12 76 13 76 107 56z m1743 -41 c25 -13 23 -102 -3 -145 -17
-28 -26 -33 -58 -33 -31 0 -42 6 -61 31 -21 28 -23 38 -16 92 3 34 9 65 11 69
6 9 103 -2 127 -14z m-1445 -15 c20 -5 22 -11 22 -84 l0 -79 -56 0 c-48 0 -60
4 -81 26 -22 24 -23 28 -12 91 l11 65 47 -7 c25 -3 56 -9 69 -12z m1690 -33
l48 -11 -4 -62 c-6 -83 -14 -97 -60 -97 -26 0 -41 6 -50 20 -7 11 -21 20 -33
20 -15 0 -19 5 -15 18 2 9 8 41 11 70 8 59 13 61 103 42z m-1410 -16 c20 -4
22 -10 22 -68 0 -53 -4 -67 -25 -90 -27 -29 -47 -33 -65 -11 -7 8 -17 15 -22
15 -5 0 -18 8 -29 19 -19 17 -19 23 -8 85 l11 67 47 -6 c25 -3 56 -8 69 -11z
m1680 -35 c44 -11 51 -16 56 -42 10 -51 7 -71 -19 -109 l-25 -37 -38 17 c-81
36 -84 41 -71 116 12 74 13 74 97 55z m-1402 -20 c32 -11 42 -90 18 -135 -17
-32 -22 -34 -70 -34 -45 0 -54 4 -69 26 -13 21 -16 38 -10 82 10 82 10 82 63
75 26 -3 57 -9 68 -14z m1716 -33 c32 -14 38 -101 11 -147 -16 -26 -23 -29
-69 -29 -44 0 -54 3 -59 20 -3 11 -11 20 -17 20 -10 0 -7 47 8 121 5 25 8 27
57 24 29 -1 59 -5 69 -9z m-1417 -27 c12 -12 7 -136 -5 -156 -17 -27 -28 -28
-54 -8 -11 8 -32 15 -48 15 -18 0 -28 5 -28 15 0 8 -5 15 -11 15 -8 0 -10 18
-5 61 11 91 7 88 82 73 36 -6 67 -13 69 -15z m-1427 -70 c4 -70 -11 -92 -56
-83 -17 4 -32 11 -32 16 0 20 65 128 75 125 5 -2 11 -28 13 -58z m3041 51 c4
0 25 -34 47 -75 33 -64 37 -77 24 -85 -24 -15 -77 -12 -84 5 -3 8 -15 15 -27
15 -20 0 -21 3 -15 61 9 76 15 92 33 85 8 -3 18 -6 22 -6z m-1336 -27 c4 -2 7
-31 7 -63 0 -51 -4 -63 -28 -90 -34 -37 -66 -34 -110 9 -26 27 -27 29 -18 95
l9 68 66 -7 c36 -4 69 -9 74 -12z m-1483 -11 l45 -7 3 -74 c3 -86 0 -91 -74
-91 -45 0 -54 4 -69 26 -13 20 -15 37 -10 73 12 84 15 91 39 86 11 -3 41 -9
66 -13z m1694 -27 c11 -8 30 -15 43 -15 22 0 23 -4 23 -63 0 -80 -14 -100 -68
-100 -48 0 -94 35 -87 68 2 11 7 41 10 67 5 38 10 48 28 51 12 2 24 5 27 5 3
1 14 -5 24 -13z m-1377 -32 c9 -4 13 -24 13 -67 0 -52 -4 -65 -25 -89 -35 -37
-60 -34 -101 10 -37 39 -37 38 -18 137 6 28 6 28 62 21 30 -4 61 -9 69 -12z
m1683 -32 c28 -5 36 -13 43 -38 15 -51 1 -101 -33 -118 -41 -21 -70 -19 -104
8 l-28 23 12 72 12 71 31 -6 c18 -3 48 -8 67 -12z m-1403 -13 c20 -25 24 -84
8 -121 -17 -42 -40 -57 -87 -57 -47 0 -73 48 -65 120 3 28 9 55 12 60 9 15
121 12 132 -2z m1700 -42 c38 -14 35 -112 -5 -158 -18 -22 -75 -24 -94 -3 -39
43 -40 46 -33 102 4 31 9 61 11 67 5 12 78 7 121 -8z m-1497 -6 c25 -6 55 -12
67 -15 17 -4 23 -15 29 -51 12 -85 -47 -166 -86 -119 -7 8 -19 15 -27 15 -8 0
-25 9 -37 21 -20 19 -21 25 -12 90 5 38 12 69 15 69 3 0 26 -5 51 -10z m1735
-42 l63 -11 -2 -63 c-3 -78 -16 -96 -65 -88 -20 3 -50 12 -66 21 l-31 15 9 69
c6 38 14 69 20 69 5 0 38 -5 72 -12z m-1385 -21 c40 -32 17 -132 -37 -159 -44
-23 -46 -23 -81 11 -28 29 -29 30 -19 95 l9 66 57 0 c31 0 63 -6 71 -13z
m-1423 -21 c2 -1 -1 -36 -5 -77 l-7 -74 -44 -3 c-32 -2 -47 1 -53 12 -5 9 -16
16 -24 16 -17 0 -16 7 14 93 l17 49 50 -7 c27 -3 51 -7 52 -9z m3141 -11 c15
-5 17 -101 2 -110 -5 -3 -10 -14 -10 -23 0 -16 -57 -52 -82 -52 -6 0 -23 14
-38 31 -25 30 -25 34 -17 99 l10 68 61 -5 c33 -2 67 -6 74 -8z m-1465 -12 c42
-24 47 -31 47 -76 0 -57 -34 -97 -81 -97 -27 0 -45 7 -63 25 -24 23 -24 28
-16 82 6 32 10 61 10 65 0 7 25 15 53 17 11 0 33 -7 50 -16z m-1448 -17 c41
-3 51 -8 63 -31 21 -40 0 -99 -47 -131 -46 -31 -74 -31 -91 1 -7 14 -18 25
-23 25 -9 0 0 126 10 143 3 4 13 5 22 2 10 -3 40 -7 66 -9z m1742 -42 c39 -8
44 -110 7 -162 -12 -18 -25 -22 -64 -22 -66 0 -86 26 -76 103 13 100 12 99 65
92 25 -3 56 -8 68 -11z m-1450 -11 c43 -18 43 -18 43 -70 0 -28 -4 -63 -9 -76
-9 -22 -17 -26 -71 -29 -58 -3 -63 -1 -76 23 -18 35 1 156 25 162 31 9 46 7
88 -10z m1733 -41 c23 -22 25 -88 4 -139 -12 -31 -16 -33 -63 -33 -41 0 -51 4
-56 20 -3 11 -11 20 -17 20 -10 0 -4 122 7 139 2 4 26 8 55 9 38 1 56 -3 70
-16z m-1473 -13 c50 -9 63 -15 59 -26 -3 -8 -6 -41 -6 -74 0 -43 -4 -59 -13
-59 -8 0 -22 -9 -31 -19 -18 -19 -19 -19 -66 17 -27 20 -47 42 -45 48 2 6 6
36 10 67 4 32 12 57 18 57 6 0 39 -5 74 -11z m2499 -46 c-11 -11 -19 6 -11 24
8 17 8 17 12 0 3 -10 2 -21 -1 -24z m-743 1 c20 -6 22 -32 6 -104 l-11 -50
-54 0 c-39 0 -56 4 -60 15 -4 8 -13 15 -21 15 -9 0 -13 6 -10 13 3 8 8 40 12
71 l8 58 56 -7 c31 -3 64 -8 74 -11z m-1424 -32 c49 -54 -5 -166 -79 -160 -25
2 -38 9 -45 26 -5 12 -15 22 -22 22 -16 0 -16 20 -2 94 l12 57 56 -6 c43 -5
62 -13 80 -33z m1694 -18 c8 -3 19 -15 25 -28 13 -28 6 -117 -11 -133 -7 -6
-37 -13 -67 -14 -52 -3 -55 -2 -73 29 -18 30 -18 38 -6 98 l13 66 52 -6 c29
-3 59 -8 67 -12z m-1483 -6 c8 -4 27 -9 41 -12 20 -4 28 -14 33 -37 11 -57 7
-107 -10 -117 -26 -14 -117 -2 -136 19 -21 21 -22 40 -7 106 10 43 14 49 38
48 14 -1 33 -4 41 -7z m-1389 -24 c22 -4 28 -12 33 -44 7 -48 -7 -88 -42 -117
-37 -31 -57 -28 -92 10 -29 30 -30 35 -25 92 4 32 9 63 12 68 5 8 42 5 114 -9z
m3104 -17 l60 -13 9 -48 c14 -73 -4 -100 -70 -104 -42 -2 -53 1 -72 21 -22 23
-23 27 -11 91 6 36 14 66 18 66 3 -1 33 -6 66 -13z m-1379 -24 c15 -5 23 -56
15 -93 -8 -36 -50 -90 -70 -90 -9 0 -33 16 -55 35 -37 34 -38 37 -32 83 13 87
11 85 74 77 30 -4 61 -9 68 -12z m-1447 -10 c28 -16 31 -23 31 -66 0 -54 -29
-107 -58 -107 -9 0 -32 9 -50 20 -18 11 -40 20 -48 20 -13 0 -15 7 -10 33 3
17 8 51 12 75 7 42 7 42 49 42 24 0 57 -8 74 -17z m3099 -19 c6 -2 12 -12 12
-23 0 -11 5 -23 10 -26 17 -10 12 -96 -7 -117 -23 -26 -45 -22 -77 11 -26 27
-28 34 -22 78 15 99 14 99 84 77z m-1410 -13 c9 -5 25 -12 35 -15 13 -4 17
-16 17 -55 0 -29 -7 -62 -17 -80 -15 -26 -24 -31 -58 -31 -32 0 -46 6 -65 28
-24 27 -25 32 -16 95 l8 67 39 0 c22 0 47 -4 57 -9z m-1403 -27 c19 -5 20 -12
18 -72 -4 -82 -17 -96 -83 -86 -68 10 -81 29 -70 101 6 32 10 62 10 67 0 8 77
2 125 -10z m1685 -32 c41 -7 45 -10 48 -39 5 -55 -15 -106 -49 -126 -31 -17
-32 -17 -65 8 -18 14 -38 25 -44 25 -7 0 -10 10 -6 28 3 15 8 48 12 74 6 44 8
47 33 42 14 -3 46 -8 71 -12z m-1409 -15 c8 -7 21 -27 27 -45 20 -59 -31 -132
-92 -132 -27 0 -39 7 -56 30 -19 27 -20 34 -9 95 l11 65 52 0 c28 0 58 -6 67
-13z m1712 -41 c26 -20 24 -119 -3 -146 -28 -28 -78 -25 -113 5 -28 24 -28 25
-16 90 l11 65 52 0 c28 0 59 -7 69 -14z m-1468 -10 l50 -14 -1 -59 c-1 -86 -5
-93 -58 -93 -27 0 -48 5 -53 13 -4 8 -16 17 -27 20 -16 6 -17 14 -11 64 11 93
11 93 100 69z m1707 -37 l56 -11 4 -47 c2 -25 -2 -61 -9 -78 -12 -31 -16 -33
-61 -33 -80 0 -108 49 -80 141 12 43 13 43 90 28z m-1395 -21 c33 -16 40 -86
13 -137 -20 -39 -22 -41 -68 -41 -41 0 -50 4 -68 30 -19 27 -20 37 -12 88 5
31 11 62 12 67 4 13 93 8 123 -7z m-1457 -10 l40 -13 0 -55 c0 -64 -17 -95
-55 -103 -19 -3 -30 1 -38 14 -7 11 -17 19 -24 19 -9 0 -13 21 -13 75 0 73 1
75 25 75 14 0 43 -6 65 -12z m3142 -23 c21 -3 39 -9 42 -14 10 -16 -13 -129
-30 -150 -30 -34 -74 -27 -102 16 -20 31 -22 44 -16 92 8 70 10 73 42 67 15
-2 44 -7 64 -11z m-1438 -10 c11 -8 27 -15 36 -15 13 0 16 -10 15 -52 -1 -29
-5 -65 -9 -80 -8 -27 -11 -28 -67 -28 -48 0 -61 4 -66 18 -4 9 -10 19 -13 22
-4 3 -3 35 2 72 9 56 13 68 32 71 39 8 51 6 70 -8z m-1424 -23 l45 -7 3 -46
c4 -58 -28 -107 -80 -125 -34 -12 -39 -11 -48 6 -5 10 -17 26 -26 34 -14 14
-14 25 -4 86 11 67 12 69 38 64 15 -3 47 -8 72 -12z m3140 -18 c47 -15 49 -18
56 -61 3 -24 2 -59 -3 -76 -8 -30 -11 -32 -63 -34 -46 -2 -60 1 -81 20 -25 23
-26 26 -17 83 5 32 11 65 13 72 6 16 36 15 95 -4z m-1392 -27 c13 -10 15 -75
3 -116 -8 -30 -96 -57 -121 -38 -29 23 -40 42 -35 67 2 14 7 44 10 67 l7 43
61 -7 c34 -3 68 -10 75 -16z m-1466 -9 c34 -10 38 -15 44 -57 5 -35 3 -53 -12
-81 -17 -30 -24 -35 -59 -36 -60 -1 -72 4 -85 36 -10 23 -10 43 0 93 12 63 12
63 43 60 18 -2 49 -9 69 -15z m1731 -40 c20 -10 24 -101 5 -143 -10 -22 -17
-25 -63 -25 -46 0 -55 4 -70 26 -14 22 -15 34 -5 93 l11 68 52 -5 c29 -2 60
-9 70 -14z m-1476 -9 l63 -11 0 -68 c0 -42 -5 -72 -12 -76 -6 -4 -33 -7 -59
-6 -72 1 -93 27 -84 101 7 57 11 71 22 71 4 0 35 -5 70 -11z m1717 -39 l59
-12 -6 -66 c-8 -80 -23 -96 -82 -86 -44 7 -75 33 -75 63 0 44 22 120 33 116 7
-2 38 -9 71 -15z m-1383 -22 c3 -5 5 -19 3 -31 -2 -12 -6 -43 -9 -69 -4 -34
-11 -48 -21 -48 -9 0 -22 -7 -30 -15 -25 -25 -57 -17 -80 19 -19 29 -20 39
-11 98 l10 65 66 -5 c36 -3 69 -9 72 -14z m1717 -46 c28 -37 4 -142 -32 -142
-8 0 -27 -7 -42 -15 -28 -14 -30 -14 -59 18 -29 31 -30 34 -22 87 13 86 9 83
80 75 38 -4 67 -13 75 -23z m-1489 0 c40 -7 45 -11 58 -47 16 -44 11 -104 -9
-117 -7 -4 -35 -8 -62 -8 -40 0 -53 5 -74 27 -24 26 -24 28 -12 95 12 61 15
67 34 63 12 -3 41 -9 65 -13z m-1381 -27 c1 -1 5 -24 8 -51 5 -39 2 -54 -12
-72 -30 -37 -52 -20 -59 46 -4 32 -9 65 -12 75 -4 16 0 17 34 11 21 -4 39 -8
41 -9z m3091 -9 l55 -12 3 -59 c2 -41 -1 -65 -13 -82 -14 -22 -20 -24 -57 -18
-23 4 -46 12 -52 19 -5 7 -18 15 -28 19 -12 4 -17 14 -13 24 2 10 8 42 11 71
8 59 8 59 94 38z m-1381 -28 c22 -19 14 -90 -15 -136 -29 -44 -52 -52 -73 -27
-7 8 -18 15 -24 15 -22 0 -47 41 -42 68 2 15 7 44 11 65 l6 39 62 -7 c34 -4
68 -12 75 -17z m-1498 -3 c67 -12 67 -12 68 -63 1 -26 -4 -62 -9 -79 -10 -32
-12 -33 -70 -33 -52 0 -59 2 -59 20 0 11 -5 20 -11 20 -8 0 -9 20 -4 68 8 78
11 84 33 78 10 -2 33 -7 52 -11z m3150 -20 c81 -12 80 -10 73 -68 -9 -80 -15
-87 -77 -87 -39 0 -55 4 -60 15 -3 8 -13 15 -22 15 -12 0 -15 6 -11 23 3 12 9
44 12 70 6 37 11 47 24 43 9 -2 36 -7 61 -11z m-1383 -21 c19 -18 21 -81 4
-121 -8 -20 -23 -32 -52 -41 -39 -12 -41 -11 -71 18 -32 32 -32 33 -12 133 5
25 9 27 61 27 36 0 60 -5 70 -16z m-1419 -63 c2 -25 -3 -57 -13 -77 -15 -31
-20 -34 -61 -34 -30 0 -46 5 -50 15 -4 8 -13 15 -21 15 -13 0 -14 11 -8 68 4
37 9 70 11 73 2 3 34 1 71 -5 l68 -11 3 -44z m1644 14 c25 -4 50 -10 56 -14
17 -10 26 -91 13 -123 -10 -26 -15 -28 -64 -28 -39 0 -60 5 -77 20 -20 18 -22
25 -15 76 9 71 14 86 30 80 7 -2 33 -7 57 -11z m-1388 -16 c36 -17 44 -84 16
-138 -20 -40 -22 -41 -73 -41 -47 0 -54 3 -69 30 -14 25 -15 39 -6 95 l11 65
48 0 c26 0 59 -5 73 -11z m1711 -43 c18 -6 20 -14 17 -68 -5 -85 -22 -108 -78
-108 -24 0 -44 5 -44 10 0 6 -8 18 -19 29 -16 16 -17 25 -9 77 5 33 11 64 13
69 3 11 81 5 120 -9z m-1452 -13 l38 -6 -3 -76 -3 -76 -53 -3 c-46 -3 -57 1
-78 21 -22 22 -23 27 -14 83 6 32 10 63 10 68 0 5 15 6 33 2 17 -4 49 -9 70
-13z m1690 -34 l57 -12 0 -63 c0 -34 -3 -69 -6 -78 -8 -22 -92 -22 -100 -1 -4
8 -11 15 -18 15 -33 1 -37 16 -26 83 7 40 17 67 24 67 7 0 38 -5 69 -11z
m-1418 -13 c32 -3 55 -33 55 -72 0 -36 -29 -93 -55 -110 -25 -16 -27 -16 -53
7 -15 13 -28 27 -30 32 -2 4 -11 7 -19 7 -12 0 -14 9 -9 48 14 103 14 103 49
97 18 -3 46 -7 62 -9z m1700 -39 l60 -13 3 -53 c2 -42 -2 -60 -20 -87 -29 -43
-60 -44 -100 -4 -16 17 -34 30 -40 30 -9 0 -7 34 8 113 6 31 7 31 89 14z
m-1429 -17 c51 -11 52 -12 58 -56 4 -31 1 -54 -11 -79 -16 -34 -19 -35 -72
-35 -53 0 -57 2 -70 30 -12 29 -12 48 5 131 3 19 10 26 22 23 9 -1 40 -8 68
-14z m-1416 -21 c30 -7 35 -13 37 -41 1 -18 -3 -49 -9 -70 -8 -28 -17 -37 -41
-42 -47 -10 -61 -7 -88 14 -24 20 -24 22 -15 90 l10 70 35 -6 c20 -3 52 -10
71 -15z m3103 -14 c27 -7 27 -8 10 -27 -10 -11 -34 -28 -54 -39 l-36 -18 4 27
c12 75 11 75 76 57z m-1416 -16 l63 -11 0 -72 c0 -59 -3 -74 -20 -89 -25 -21
-40 -21 -66 -2 -10 8 -25 15 -31 15 -7 0 -21 8 -30 17 -16 16 -17 27 -9 85 5
38 14 68 20 68 5 0 38 -5 73 -11z m-1389 -21 c19 -10 22 -19 22 -68 0 -61 -11
-80 -48 -80 -13 0 -30 -7 -38 -15 -22 -21 -41 -19 -55 8 -7 12 -16 25 -21 28
-5 3 -4 36 3 76 l11 70 52 -4 c28 -3 61 -9 74 -15z m1720 -40 c7 -6 12 -33 12
-65 0 -48 -4 -57 -32 -83 -38 -35 -68 -32 -109 9 -26 25 -27 28 -16 93 l10 67
61 -6 c34 -3 67 -10 74 -15z m-1430 -98 l-3 -75 -53 -3 c-47 -3 -57 0 -79 24
-25 28 -26 32 -7 126 7 33 32 38 97 18 l48 -14 -3 -76z m1637 60 c11 -5 32
-11 48 -14 25 -6 27 -9 27 -62 0 -80 -10 -94 -69 -94 -34 0 -51 5 -55 15 -3 8
-13 15 -22 15 -13 0 -15 7 -11 33 3 17 9 51 12 74 7 44 23 52 70 33z m-1382
-26 c25 -5 27 -9 27 -59 0 -72 -5 -81 -58 -107 -37 -19 -46 -20 -50 -9 -3 8
-16 25 -30 38 -25 23 -25 27 -6 126 6 30 11 31 117 11z m1734 -46 c20 -16 26
-73 11 -104 -7 -15 -27 -36 -44 -46 -30 -18 -33 -18 -63 -1 -17 10 -31 21 -31
26 0 4 -7 7 -16 7 -13 0 -15 8 -9 53 12 93 9 90 78 82 34 -4 68 -12 74 -17z
m-1452 -4 c28 -18 33 -67 14 -123 -13 -38 -35 -51 -84 -51 -28 0 -38 5 -42 20
-3 11 -10 20 -16 20 -10 0 -4 101 9 133 8 23 86 23 119 1z m1682 -38 c7 -7
-56 -66 -69 -66 -8 0 -19 -5 -26 -12 -8 -8 -10 -2 -6 28 10 67 10 67 56 60 23
-4 44 -8 45 -10z m-1427 -17 c27 -6 48 -14 45 -18 -2 -5 1 -21 7 -37 9 -24 7
-38 -12 -82 -25 -58 -48 -66 -98 -35 -57 36 -60 43 -49 116 10 76 12 76 107
56z m-1415 -19 c17 0 24 -7 29 -31 6 -33 -9 -73 -25 -64 -5 4 -21 29 -35 57
-21 41 -23 50 -9 44 9 -3 27 -6 40 -6z m1723 -33 c16 -19 17 -76 3 -118 -9
-29 -19 -39 -52 -49 -39 -13 -40 -13 -70 19 -29 32 -29 33 -18 97 l11 64 58 0
c35 0 62 -5 68 -13z m-1488 -12 c64 -12 67 -14 74 -55 4 -27 1 -50 -11 -75
-16 -33 -20 -35 -62 -35 -31 1 -54 7 -70 20 -21 18 -23 25 -16 77 9 73 14 85
34 79 9 -2 32 -7 51 -11z m1742 -41 c26 -5 38 -12 42 -28 10 -39 6 -68 -15
-102 -18 -29 -26 -34 -59 -34 -28 0 -47 7 -66 25 -23 21 -25 30 -20 62 17 99
15 96 50 89 17 -4 47 -9 68 -12z m-1446 -10 c44 -6 52 -10 64 -37 11 -25 11
-36 -2 -70 -15 -43 -21 -48 -80 -66 -36 -12 -39 -11 -63 16 -23 25 -25 33 -20
88 4 32 9 63 11 67 6 10 22 10 90 2z m1740 -46 c24 -11 37 -62 27 -109 -11
-55 -88 -76 -138 -37 -26 20 -27 24 -21 80 10 86 10 86 64 81 26 -2 57 -9 68
-15z m-1468 -2 c15 -8 34 -16 42 -19 12 -4 14 -18 10 -78 l-5 -74 -48 -3 c-38
-3 -53 1 -76 20 -15 13 -26 28 -25 33 1 6 5 36 9 67 6 56 12 63 53 67 8 0 26
-5 40 -13z m1697 -45 l30 -7 -50 -37 c-55 -40 -70 -45 -61 -21 3 9 6 29 6 45
0 31 11 34 75 20z m-1412 -16 l47 -7 0 -67 c0 -64 -1 -67 -35 -94 l-35 -28
-31 30 c-17 17 -37 31 -46 31 -11 0 -13 7 -9 28 3 15 8 49 12 75 6 43 9 48 28
43 11 -2 42 -8 69 -11z m304 -57 c41 -20 45 -94 7 -144 -35 -46 -78 -47 -117
-3 -30 35 -32 46 -16 118 l10 49 47 -4 c26 -3 57 -10 69 -16z m252 -49 l50
-10 6 -53 c10 -80 -2 -96 -74 -96 -78 0 -96 19 -87 90 12 88 13 89 105 69z
m-1411 -24 c32 -7 40 -23 26 -59 -9 -24 -16 -20 -58 30 -28 34 -34 45 -20 41
10 -3 34 -8 52 -12z m1730 -38 c15 -12 16 -101 2 -128 -6 -10 -17 -19 -24 -19
-8 0 -16 -7 -20 -15 -3 -9 -17 -15 -33 -15 -21 1 -34 10 -51 37 -21 32 -23 45
-17 93 4 30 9 58 11 62 6 9 116 -3 132 -15z m-1463 -9 l45 -12 0 -51 c0 -73
-17 -99 -64 -103 -29 -3 -43 2 -58 17 -10 12 -26 21 -34 21 -12 0 -15 6 -11
23 3 12 9 43 12 70 7 44 9 47 36 47 16 0 49 -5 74 -12z m1690 -38 c19 -7 19
-8 2 -15 -10 -4 -22 -18 -27 -30 -6 -15 -19 -24 -40 -27 -31 -5 -32 -4 -26 25
3 16 6 36 6 43 0 16 52 18 85 4z m-1402 -16 c26 -5 27 -8 27 -63 0 -31 -6 -65
-12 -74 -18 -24 -97 -26 -110 -4 -5 9 -16 17 -24 17 -12 0 -14 7 -10 28 3 15
8 46 11 70 l7 43 41 -6 c23 -3 54 -8 70 -11z m242 -47 l60 -13 0 -65 c0 -91
-5 -99 -61 -99 -38 0 -51 5 -71 27 -23 24 -24 31 -18 81 8 61 14 82 24 82 3
-1 33 -7 66 -13z m321 -62 c30 -7 42 -81 19 -124 -14 -27 -21 -31 -59 -31 -27
0 -48 6 -56 15 -7 8 -19 15 -28 15 -12 0 -13 9 -8 53 4 28 9 62 12 73 6 22 7
22 120 -1z m280 -51 c16 -4 23 -15 27 -46 6 -48 -3 -78 -34 -107 -35 -32 -83
-28 -109 10 -19 26 -21 38 -15 87 4 31 9 61 12 65 5 8 67 3 119 -9z m243 -50
c11 -4 9 -8 -7 -20 -12 -8 -22 -22 -22 -31 0 -9 -6 -13 -14 -10 -7 3 -24 -2
-36 -10 -23 -16 -23 -16 -17 23 4 21 7 45 7 52 0 12 45 10 89 -4z m-1137 -71
c35 -5 37 -8 32 -32 -11 -43 -21 -46 -58 -13 -19 16 -44 33 -55 37 -35 11 -25
28 12 21 17 -4 49 -9 69 -13z m278 -52 c32 -6 35 -10 38 -43 7 -82 -47 -104
-118 -46 -33 26 -39 36 -34 57 12 56 1 53 114 32z m291 -54 c23 -9 25 -13 19
-58 -4 -27 -8 -50 -11 -51 -46 -29 -109 -39 -109 -19 0 5 -7 17 -16 26 -13 12
-15 27 -10 69 l7 53 47 -4 c26 -3 58 -10 73 -16z m230 -39 l26 -12 -29 -43
c-30 -44 -35 -47 -62 -37 -16 6 -16 43 -1 92 5 15 34 16 66 0z"/>
<path d="M3296 12505 c-15 -8 -39 -15 -52 -15 -13 0 -28 -9 -34 -20 -6 -11
-17 -20 -25 -20 -7 0 -17 -9 -20 -20 -3 -11 -12 -20 -20 -20 -7 0 -25 -21 -39
-46 -22 -39 -26 -59 -26 -128 0 -71 4 -87 30 -132 69 -121 226 -163 357 -95
152 78 187 296 68 415 -14 15 -29 26 -33 26 -4 0 -15 9 -25 20 -9 11 -28 20
-41 20 -13 0 -37 7 -52 15 -16 8 -36 15 -44 15 -8 0 -28 -7 -44 -15z m124
-151 c31 -20 41 -35 48 -69 8 -39 1 -142 -12 -163 -7 -12 -119 -22 -163 -15
-28 5 -41 15 -64 51 -17 28 -29 60 -29 80 0 114 124 180 220 116z"/>
</g>
</svg>
