<?xml version="1.0" standalone="no"?>
<!DOCTYPE svg PUBLIC "-//W3C//DTD SVG 20010904//EN"
 "http://www.w3.org/TR/2001/REC-SVG-20010904/DTD/svg10.dtd">
<svg version="1.0" xmlns="http://www.w3.org/2000/svg"
 width="262.000000pt" height="146.000000pt" viewBox="0 0 262.000000 146.000000"
 preserveAspectRatio="xMidYMid meet">

<g transform="translate(0.000000,146.000000) scale(0.100000,-0.100000)"
fill="#000000" stroke="none">
<path d="M0 1359 l0 -101 58 7 c31 3 67 9 80 12 22 5 28 -3 14 -23 -4 -6 -38
-35 -77 -64 -38 -29 -72 -54 -75 -57 -3 -3 27 -2 67 2 129 13 156 -10 78 -66
-25 -18 -44 -33 -42 -35 1 -1 34 4 73 12 39 7 102 15 140 18 75 5 114 27 114
65 0 31 -16 36 -140 41 l-115 5 120 49 c161 66 215 94 215 110 0 23 -37 48
-82 53 -63 8 -81 20 -74 49 l6 24 -180 0 -180 0 0 -101z"/>
<path d="M2094 1398 c-70 -67 -79 -88 -36 -88 23 0 170 20 270 37 43 7 42 -15
-3 -87 -19 -30 -35 -60 -35 -67 0 -21 50 -15 145 17 49 17 90 30 92 30 1 0 7
-10 14 -21 9 -17 8 -20 -2 -14 -9 6 -11 3 -6 -8 3 -9 1 -19 -5 -23 -7 -5 -8
-2 -3 7 8 12 6 12 -9 0 -9 -8 -15 -20 -12 -27 2 -7 -5 -20 -17 -31 l-22 -18
19 23 c37 44 9 21 -49 -40 -33 -35 -44 -49 -25 -33 l35 30 -29 -32 c-15 -17
-34 -29 -41 -27 -6 3 -18 -3 -26 -12 -12 -15 -12 -17 0 -9 10 5 12 4 7 -4 -4
-6 -11 -9 -16 -6 -11 7 -40 -5 -40 -17 0 -5 5 -6 12 -2 7 4 8 3 4 -5 -4 -6
-11 -9 -16 -6 -5 3 -23 -1 -39 -10 -21 -10 -29 -21 -26 -35 3 -13 -2 -20 -12
-20 -13 0 -14 2 -2 17 12 14 12 16 -1 11 -8 -2 -16 -12 -18 -21 -6 -30 40 -19
121 28 72 43 105 69 55 45 -21 -10 -22 -10 -5 4 11 8 26 12 35 9 10 -4 13 -2
8 5 -3 6 -1 14 5 18 8 5 9 3 4 -6 -6 -10 -4 -12 8 -7 23 9 21 -6 -3 -28 -12
-10 -19 -24 -16 -31 5 -14 -28 -47 -51 -50 -20 -3 -61 -42 -139 -133 -73 -85
-80 -106 -31 -96 50 10 299 133 292 145 -4 6 1 7 10 4 13 -6 9 -14 -24 -48
-40 -41 -53 -64 -28 -50 6 4 1 -5 -12 -19 -30 -33 -42 -36 -15 -4 17 20 16 20
-9 -2 -27 -25 -38 -49 -14 -35 8 5 8 2 -2 -9 -15 -19 -26 -23 -15 -5 4 7 3 8
-5 4 -42 -26 -66 -153 -31 -164 13 -5 13 -3 0 14 -14 17 -14 18 2 6 10 -8 16
-19 15 -25 -2 -14 54 -21 90 -12 13 3 21 9 19 14 -3 5 2 8 12 7 9 0 16 4 15
11 -2 7 3 10 10 7 7 -2 13 -13 13 -24 0 -10 -5 -16 -10 -13 -5 4 -7 -1 -3 -11
4 -9 3 -15 -2 -12 -11 7 -41 -66 -41 -99 0 -36 20 -31 92 23 l63 47 3 523 2
522 -231 0 -231 0 -64 -62z m76 49 c0 -2 -10 -12 -22 -23 l-23 -19 19 23 c18
21 26 27 26 19z m-89 -81 l-34 -35 34 -4 34 -4 -37 -1 c-21 -1 -38 1 -38 5 0
8 61 73 69 73 3 0 -10 -15 -28 -34z m272 -3 c-7 -2 -21 -2 -30 0 -10 3 -4 5
12 5 17 0 24 -2 18 -5z m-56 -9 c-3 -3 -12 -4 -19 -1 -8 3 -5 6 6 6 11 1 17
-2 13 -5z m-44 -11 c-7 -2 -21 -2 -30 0 -10 3 -4 5 12 5 17 0 24 -2 18 -5z
m-75 -10 c-10 -2 -28 -2 -40 0 -13 2 -5 4 17 4 22 1 32 -1 23 -4z m163 -79
c-23 -37 -41 -63 -41 -58 0 6 16 34 35 64 19 30 35 62 36 70 0 10 2 11 5 3 3
-7 -13 -42 -35 -79z m6 -60 c-3 -3 -12 -4 -19 -1 -8 3 -5 6 6 6 11 1 17 -2 13
-5z m-27 -249 c0 -6 -56 -35 -67 -35 -4 1 8 9 27 20 39 22 40 22 40 15z m150
-140 c0 -2 -22 -16 -50 -30 -27 -14 -50 -23 -50 -20 0 2 21 16 48 29 53 28 52
28 52 21z m-240 -58 l-44 -42 40 46 c21 25 41 44 44 42 2 -2 -16 -23 -40 -46z
m130 -1 c0 -2 -7 -7 -16 -10 -8 -3 -12 -2 -9 4 6 10 25 14 25 6z m-60 -31
c-14 -8 -29 -14 -35 -14 -5 0 1 6 15 14 14 8 30 14 35 14 6 0 -1 -6 -15 -14z
m-80 -32 c0 -3 -9 -3 -20 0 -11 3 -20 0 -20 -6 0 -6 -3 -8 -6 -4 -12 11 6 25
26 20 11 -3 20 -8 20 -10z m132 -103 c-9 -21 -18 -35 -20 -30 -3 9 25 70 33
70 2 0 -4 -18 -13 -40z m258 -154 c0 -2 -8 -10 -17 -17 -16 -13 -17 -12 -4 4
13 16 21 21 21 13z m-40 -29 c0 -2 -10 -12 -22 -23 l-23 -19 19 23 c18 21 26
27 26 19z m-67 -46 c21 10 21 10 3 -5 -27 -22 -36 -20 -35 7 1 16 2 18 6 5 4
-15 8 -16 26 -7z"/>
<path d="M413 1063 c-7 -2 -13 -13 -13 -23 0 -28 -43 -73 -143 -150 -103 -78
-210 -174 -187 -167 9 3 52 15 95 27 44 12 107 35 140 50 33 16 86 36 118 45
66 19 65 33 -2 42 -40 6 -42 7 -39 37 2 25 11 35 48 54 24 12 53 30 63 41 17
17 17 19 2 35 -16 15 -56 20 -82 9z"/>
<path d="M2384 918 l-19 -23 23 19 c21 18 27 26 19 26 -2 0 -12 -10 -23 -22z"/>
</g>
</svg>
