<svg xmlns="http://www.w3.org/2000/svg" xmlns:xlink="http://www.w3.org/1999/xlink" version="1.1" width="256" height="256" viewBox="0 0 256 256" xml:space="preserve">
<g style="stroke: none; stroke-width: 0; stroke-dasharray: none; stroke-linecap: butt; stroke-linejoin: miter; stroke-miterlimit: 10; fill: none; fill-rule: nonzero; opacity: 1;" transform="translate(1.4065934065934016 1.4065934065934016) scale(2.81 2.81)">
	<path d="M 84.144 90 H 5.857 C 2.628 90 0 87.372 0 84.143 V 5.857 C 0 2.627 2.628 0 5.857 0 h 78.286 C 87.373 0 90 2.627 90 5.857 v 78.286 C 90 87.372 87.373 90 84.144 90 z M 5.857 2 C 3.73 2 2 3.73 2 5.857 v 78.286 C 2 86.27 3.73 88 5.857 88 h 78.286 C 86.27 88 88 86.27 88 84.143 V 5.857 C 88 3.73 86.27 2 84.144 2 H 5.857 z" style="stroke: none; stroke-width: 1; stroke-dasharray: none; stroke-linecap: butt; stroke-linejoin: miter; stroke-miterlimit: 10; fill: rgb(255,255,255); fill-rule: nonzero; opacity: 1;" transform=" matrix(1 0 0 1 0 0) " stroke-linecap="round"/>
	<path d="M 49.646 76 H 38.631 c -0.552 0 -1 -0.447 -1 -1 V 48.631 h -8.21 c -0.552 0 -1 -0.447 -1 -1 V 36.965 c 0 -0.552 0.448 -1 1 -1 h 8.21 v -6.866 c 0 -9.313 5.64 -15.099 14.718 -15.099 c 3.88 0 7.31 0.289 8.362 0.429 c 0.497 0.066 0.868 0.49 0.868 0.991 v 9.54 c 0 0.552 -0.447 1 -1 1 l -5.647 0.002 c -3.623 0 -4.286 1.412 -4.286 4.192 v 5.81 h 9.562 c 0.287 0 0.562 0.124 0.751 0.34 c 0.189 0.216 0.277 0.503 0.241 0.788 l -1.375 10.666 c -0.064 0.499 -0.489 0.872 -0.992 0.872 h -8.187 V 75 C 50.646 75.553 50.198 76 49.646 76 z M 39.631 74 h 9.015 V 47.631 c 0 -0.553 0.447 -1 1 -1 h 8.308 l 1.117 -8.666 h -9.425 c -0.553 0 -1 -0.448 -1 -1 v -6.81 c 0 -2.883 0.715 -6.192 6.286 -6.192 l 4.647 -0.002 v -7.644 C 58.094 16.177 55.372 16 52.349 16 c -7.963 0 -12.718 4.897 -12.718 13.099 v 7.866 c 0 0.552 -0.448 1 -1 1 h -8.21 v 8.666 h 8.21 c 0.552 0 1 0.447 1 1 V 74 z" style="stroke: none; stroke-width: 1; stroke-dasharray: none; stroke-linecap: butt; stroke-linejoin: miter; stroke-miterlimit: 10; fill: rgb(255,255,255); fill-rule: nonzero; opacity: 1;" transform=" matrix(1 0 0 1 0 0) " stroke-linecap="round"/>
</g>
</svg>