<?xml version="1.0" standalone="no"?>
<!DOCTYPE svg PUBLIC "-//W3C//DTD SVG 20010904//EN"
 "http://www.w3.org/TR/2001/REC-SVG-20010904/DTD/svg10.dtd">
<svg version="1.0" xmlns="http://www.w3.org/2000/svg"
 width="960.000000pt" height="961.000000pt" viewBox="0 0 960.000000 961.000000"
 preserveAspectRatio="xMidYMid meet">

<g transform="translate(0.000000,961.000000) scale(0.100000,-0.100000)"
fill="#000000" stroke="none">
<path d="M4590 9604 c-167 -9 -425 -37 -590 -65 -1519 -255 -2824 -1228 -3505
-2614 -329 -670 -488 -1359 -488 -2115 0 -757 157 -1440 488 -2115 592 -1206
1677 -2118 2962 -2491 85 -24 160 -44 168 -44 13 0 15 206 15 1590 l0 1590
-495 0 -495 0 0 735 0 735 494 0 494 0 5 518 c5 527 8 575 52 832 84 496 295
906 602 1176 359 313 843 470 1548 499 287 12 809 -35 1113 -101 l72 -15 0
-670 0 -670 -77 8 c-132 12 -689 9 -778 -5 -145 -22 -249 -53 -355 -104 -90
-43 -116 -62 -186 -132 -86 -87 -143 -183 -182 -306 -53 -169 -62 -267 -62
-676 l0 -354 780 0 c618 0 780 -3 780 -12 -1 -7 -60 -337 -133 -733 l-133
-720 -647 -3 -647 -2 0 -1645 c0 -1416 2 -1645 14 -1645 8 0 97 14 198 31
1112 187 2135 771 2863 1634 995 1181 1360 2750 989 4253 -83 341 -191 633
-349 957 -680 1385 -1990 2362 -3505 2614 -102 17 -255 38 -341 46 -161 15
-535 25 -669 19z"/>
</g>
</svg>
